<?xml version="1.0" encoding="utf-8"?>
<!-- Generator: Adobe Illustrator 17.0.0, SVG Export Plug-In . SVG Version: 6.00 Build 0)  -->
<!DOCTYPE svg PUBLIC "-//W3C//DTD SVG 1.1//EN" "http://www.w3.org/Graphics/SVG/1.1/DTD/svg11.dtd">
<svg version="1.1" id="Logomarca" xmlns="http://www.w3.org/2000/svg" xmlns:xlink="http://www.w3.org/1999/xlink" x="0px" y="0px"
	 width="1852.408px" height="1027.558px" viewBox="0 0 1852.408 1027.558" enable-background="new 0 0 1852.408 1027.558"
	 xml:space="preserve">
<g id="Layer_1">
	<g>
		<path fill="#EE4036" d="M338.508,539.277l22.121,12.442c-8.294,15.671-20.277,28.344-35.946,38.021
			c-15.668,9.678-32.879,14.517-51.616,14.517c-27.039,0-50.39-9.829-70.049-29.494c-19.665-19.658-29.496-43.011-29.496-70.05
			c0-27.65,9.83-51.155,29.496-70.51c19.659-19.356,43.01-29.034,70.049-29.034c17.203,0,33.413,4.305,48.621,12.905
			c15.208,8.604,26.959,19.514,35.255,32.72L228.364,564.165c12.905,9.834,27.803,14.745,44.702,14.745
			c14.129,0,26.96-3.528,38.481-10.599C323.07,561.247,332.056,551.568,338.508,539.277z M211.312,546.19l110.144-97.7
			c-13.824-11.984-29.955-17.975-48.39-17.975c-20.896,0-38.481,7.144-52.767,21.431c-14.287,14.286-21.429,31.878-21.429,52.767
			C198.87,519.77,203.018,533.597,211.312,546.19z"/>
	</g>
	<g>
		<path fill="#065464" d="M990.343,441.117l-19.817,15.669c-15.057-17.512-33.947-26.27-56.685-26.27
			c-20.896,0-38.482,7.144-52.767,21.431c-14.287,14.286-21.431,31.877-21.431,52.767c0,20.897,7.144,38.481,21.431,52.77
			c14.285,14.284,31.871,21.428,52.767,21.428c22.424,0,40.858-8.294,55.302-24.886l20.28,15.668
			c-9.527,11.062-20.736,19.589-33.641,25.578c-12.905,5.993-26.893,8.988-41.941,8.988c-27.039,0-50.39-9.83-70.051-29.495
			c-19.664-19.658-29.493-43.011-29.493-70.051c0-27.649,9.829-51.154,29.493-70.51c19.661-19.356,43.012-29.034,70.051-29.034
			c15.668,0,29.956,3.075,42.86,9.217C969.607,420.538,980.815,429.445,990.343,441.117z"/>
		<path fill="#065464" d="M1109.701,409.779l-11.523,22.582c-3.691-1.224-8.146-1.844-13.368-1.844
			c-14.131,0-25.732,4.768-34.796,14.288c-9.063,9.528-13.588,20.896-13.588,34.103V598.73h-25.354V410.24l21.198,17.052
			c14.131-14.749,31.646-22.122,52.539-22.122C1094.031,405.17,1102.326,406.711,1109.701,409.779z"/>
		<path fill="#065464" d="M1130.437,336.504h25.346v27.65h-25.346V336.504z M1130.437,410.241h25.346v188.49h-25.346V410.241z"/>
		<path fill="#065464" d="M1282.968,604.261c-29.489,0-54.224-11.06-74.188-33.183v152.999h-25.348V410.241l27.649,25.808
			c19.972-20.582,43.934-30.878,71.887-30.878c27.656,0,51.155,9.678,70.516,29.034c19.353,19.355,29.028,42.861,29.028,70.51
			c0,27.04-9.675,50.393-29.028,70.051C1334.123,594.431,1310.624,604.261,1282.968,604.261z M1282.968,578.912
			c20.893,0,38.485-7.143,52.773-21.428c14.279-14.289,21.425-31.873,21.425-52.77c0-20.89-7.146-38.481-21.425-52.767
			c-14.288-14.287-31.88-21.431-52.773-21.431c-20.584,0-38.091,7.224-52.527,21.661c-14.442,14.446-21.66,31.957-21.66,52.537
			c0,20.59,7.218,38.099,21.66,52.538C1244.877,571.698,1262.384,578.912,1282.968,578.912z"/>
		<path fill="#065464" d="M1430.431,435.587h-34.104v-25.346h34.104v-52.999l25.345-12.443v65.442h33.642v25.346h-33.642V598.73
			h-25.345V435.587z"/>
	</g>
	<g>
		<path fill="#EE4036" d="M1509.417,592.392h6.335v6.339h-6.335V592.392z"/>
		<path fill="#EE4036" d="M1564.95,559.328l-4.953,3.916c-3.763-4.379-8.486-6.566-14.174-6.566c-5.223,0-9.618,1.787-13.19,5.356
			c-3.57,3.571-5.358,7.97-5.358,13.192c0,5.225,1.788,9.618,5.358,13.192c3.571,3.569,7.967,5.358,13.19,5.358
			c5.608,0,10.22-2.078,13.825-6.225l5.074,3.918c-2.381,2.766-5.188,4.896-8.41,6.394c-3.227,1.5-6.726,2.248-10.489,2.248
			c-6.755,0-12.599-2.458-17.507-7.376c-4.917-4.914-7.376-10.748-7.376-17.51c0-6.913,2.459-12.789,7.376-17.628
			c4.908-4.839,10.752-7.26,17.507-7.26c3.921,0,7.49,0.77,10.718,2.307C1559.769,554.183,1562.57,556.41,1564.95,559.328z"/>
		<path fill="#EE4036" d="M1593.289,550.339c6.912,0,12.791,2.421,17.629,7.26c4.839,4.839,7.262,10.715,7.262,17.628
			c0,6.762-2.423,12.596-7.262,17.51c-4.838,4.918-10.717,7.376-17.629,7.376c-6.755,0-12.599-2.458-17.508-7.376
			c-4.917-4.914-7.375-10.748-7.375-17.51c0-6.913,2.458-12.789,7.375-17.628C1580.69,552.76,1586.534,550.339,1593.289,550.339z
			 M1593.289,556.678c-5.223,0-9.62,1.787-13.19,5.356c-3.57,3.571-5.358,7.97-5.358,13.192c0,5.225,1.788,9.618,5.358,13.192
			c3.569,3.569,7.967,5.358,13.19,5.358c5.145,0,9.527-1.807,13.134-5.415c3.612-3.609,5.415-7.987,5.415-13.136
			c0-5.147-1.803-9.523-5.415-13.134C1602.816,558.482,1598.433,556.678,1593.289,556.678z"/>
		<path fill="#EE4036" d="M1690.3,598.73h-6.336v-30.073c0-3.608-1.189-6.507-3.568-8.697c-2.389-2.189-5.189-3.282-8.417-3.282
			c-3.149,0-5.929,1.094-8.351,3.282c-2.416,2.19-3.627,5.089-3.627,8.697v30.073h-6.336v-30.073c0-3.608-1.196-6.507-3.576-8.697
			c-2.381-2.189-5.181-3.282-8.409-3.282c-3.149,0-5.937,1.094-8.352,3.282c-2.423,2.19-3.627,5.089-3.627,8.697v30.073h-6.341
			v-47.124l5.301,4.148c3.613-3.609,7.953-5.416,13.019-5.416c3.071,0,5.993,0.732,8.759,2.19c2.765,1.458,4.916,3.381,6.448,5.762
			c3.69-5.302,8.722-7.952,15.092-7.952c2.694,0,5.131,0.502,7.319,1.5c2.187,0.999,4.068,2.284,5.644,3.858
			c1.574,1.576,2.864,3.458,3.862,5.645c0.997,2.189,1.496,4.627,1.496,7.315L1690.3,598.73L1690.3,598.73z"/>
	</g>
</g>
<g id="Xd">
	<path fill="#065464" d="M641.558,505.25l394.708,338.163H837.59c-83.237-71.289-189.305-162.15-194.372-166.547
		c-31.104-26.74-41.208-55.169-41.016-81.038c0,0.148-0.014,0.302-0.014,0.456V413.862
		C602.137,464.329,641.558,505.25,641.558,505.25z"/>
	<path opacity="0.5" fill="#0E4D56" enable-background="new    " d="M641.558,505.25L837.59,843.413
		c-83.237-71.289-189.305-162.15-194.372-166.547c-31.104-26.74-41.208-55.169-41.016-81.038c0,0.148-0.014,0.302-0.014,0.456
		V413.862C602.137,464.329,641.558,505.25,641.558,505.25z"/>
	
		<linearGradient id="SVGID_1_" gradientUnits="userSpaceOnUse" x1="499.8475" y1="378.9605" x2="933.9255" y2="378.9605" gradientTransform="matrix(1 0 0 -1 102.34 1007.598)">
		<stop  offset="0.069" style="stop-color:#000000"/>
		<stop  offset="0.4335" style="stop-color:#065464"/>
	</linearGradient>
	<path opacity="0.4" fill="url(#SVGID_1_)" enable-background="new    " d="M641.558,505.25l394.708,338.163H837.59
		c-83.237-71.289-189.305-162.15-194.372-166.547c-31.104-26.74-41.208-55.169-41.016-81.038c0,0.148-0.014,0.302-0.014,0.456
		V413.862C602.137,464.329,641.558,505.25,641.558,505.25z"/>
	<path fill="#EE4036" d="M602.202,414.431c-0.128-25.805,10.004-54.139,41.016-80.797c5.067-4.395,111.143-95.268,194.38-166.566
		h198.668l0.006,0.004L641.558,505.25c0,0-39.235,40.732-39.371,91.034V413.862C602.187,414.055,602.202,414.24,602.202,414.431z"/>
	<path opacity="0.5" fill="#EB2426" enable-background="new    " d="M602.202,414.431c-0.128-25.805,10.004-54.139,41.016-80.797
		c5.067-4.395,111.143-95.268,194.38-166.566L641.558,505.25c0,0-39.235,40.732-39.371,91.034V413.862
		C602.187,414.055,602.202,414.24,602.202,414.431z"/>
	
		<linearGradient id="SVGID_2_" gradientUnits="userSpaceOnUse" x1="499.8466" y1="625.922" x2="933.9315" y2="625.922" gradientTransform="matrix(1 0 0 -1 102.34 1007.598)">
		<stop  offset="0.064" style="stop-color:#000000"/>
		<stop  offset="0.335" style="stop-color:#EE4036"/>
	</linearGradient>
	<path opacity="0.2" fill="url(#SVGID_2_)" enable-background="new    " d="M602.202,414.431
		c-0.128-25.805,10.004-54.139,41.016-80.797c5.067-4.395,111.143-95.268,194.38-166.566h198.668l0.006,0.004L641.558,505.25
		c0,0-39.235,40.732-39.371,91.034V413.862C602.187,414.055,602.202,414.24,602.202,414.431z"/>
	<path fill="#D0D2D3" d="M1036.234,167.065l-48.67,43.042l-48.784,42.91l-97.976,85.35l-98.382,84.883
		c-32.865,28.212-65.515,56.672-98.563,84.674l0.281-0.269c-12.443,13.486-22.794,29.071-29.754,46.023
		c-3.435,8.481-6.145,17.275-7.534,26.282c-1.424,8.989-1.757,18.15-0.693,27.159c2.138,18.054,9.942,35.185,21.467,49.392
		c5.749,7.166,12.236,13.585,19.299,19.733l21.239,18.505l84.924,74.075c28.162,24.859,56.458,49.571,84.479,74.589
		c-29.03-23.861-57.785-48.041-86.674-72.064l-86.228-72.58l-21.547-18.157c-7.186-6.082-14.294-12.724-20.312-20.218
		c-6.071-7.468-11.293-15.7-15.242-24.557c-3.961-8.847-6.627-18.297-7.857-27.933c-1.193-9.643-0.889-19.431,0.572-28.987
		c1.429-9.577,4.238-18.874,7.799-27.807c7.226-17.854,17.908-34.116,30.837-48.292l0.125-0.135l0.154-0.136
		c32.738-28.358,65.872-56.26,98.791-84.411l98.971-84.205l99.375-83.736l49.895-41.631L1036.234,167.065z"/>
</g>
<g id="Xe">
	<path fill="#065464" d="M582.638,414.431c0.128-25.805-10.005-54.139-41.017-80.797c-5.063-4.395-111.142-95.268-194.378-166.566
		H148.574l-0.005,0.004L543.282,505.25c0,0,39.235,40.732,39.371,91.034V413.862C582.652,414.055,582.641,414.24,582.638,414.431z"
		/>
	<path opacity="0.5" fill="#0B4D56" enable-background="new    " d="M582.638,414.431c0.128-25.805-10.005-54.139-41.017-80.797
		c-5.063-4.395-111.142-95.268-194.378-166.566L543.282,505.25c0,0,39.235,40.732,39.371,91.034V413.862
		C582.652,414.055,582.641,414.24,582.638,414.431z"/>
	
		<linearGradient id="SVGID_3_" gradientUnits="userSpaceOnUse" x1="480.3125" y1="625.922" x2="46.2286" y2="625.922" gradientTransform="matrix(1 0 0 -1 102.34 1007.598)">
		<stop  offset="0.0542" style="stop-color:#000000"/>
		<stop  offset="0.4384" style="stop-color:#065464"/>
	</linearGradient>
	<path opacity="0.4" fill="url(#SVGID_3_)" enable-background="new    " d="M582.638,414.431
		c0.128-25.805-10.005-54.139-41.017-80.797c-5.063-4.395-111.142-95.268-194.378-166.566H148.574l-0.005,0.004L543.282,505.25
		c0,0,39.235,40.732,39.371,91.034V413.862C582.652,414.055,582.641,414.24,582.638,414.431z"/>
	<path fill="#EE4036" d="M543.282,505.25L148.574,843.413h198.679c83.233-71.289,189.305-162.15,194.368-166.547
		c31.108-26.74,41.21-55.169,41.02-81.038c0,0.148,0.011,0.302,0.011,0.456V413.862C582.702,464.329,543.282,505.25,543.282,505.25z
		"/>
	<path opacity="0.5" fill="#EC2024" enable-background="new    " d="M543.282,505.25L347.253,843.413
		c83.233-71.289,189.305-162.15,194.368-166.547c31.108-26.74,41.21-55.169,41.02-81.038c0,0.148,0.011,0.302,0.011,0.456V413.862
		C582.702,464.329,543.282,505.25,543.282,505.25z"/>
	
		<linearGradient id="SVGID_4_" gradientUnits="userSpaceOnUse" x1="480.3116" y1="378.9605" x2="46.2336" y2="378.9605" gradientTransform="matrix(1 0 0 -1 102.34 1007.598)">
		<stop  offset="0.0542" style="stop-color:#000000"/>
		<stop  offset="0.3547" style="stop-color:#EE4036"/>
	</linearGradient>
	<path opacity="0.2" fill="url(#SVGID_4_)" enable-background="new    " d="M543.282,505.25L148.574,843.413h198.679
		c83.233-71.289,189.305-162.15,194.368-166.547c31.108-26.74,41.21-55.169,41.02-81.038c0,0.148,0.011,0.302,0.011,0.456V413.862
		C582.702,464.329,543.282,505.25,543.282,505.25z"/>
	<path fill="#D0D2D3" d="M148.574,843.413l48.67-43.038l48.784-42.908l97.977-85.347l98.383-84.883
		c32.865-28.212,65.515-56.671,98.563-84.673l-0.279,0.269c12.441-13.485,22.793-29.07,29.754-46.024
		c3.435-8.48,6.144-17.275,7.534-26.282c1.423-8.99,1.756-18.149,0.693-27.16c-2.138-18.051-9.942-35.183-21.468-49.387
		c-5.749-7.169-12.233-13.587-19.298-19.735l-21.241-18.508l-84.924-74.078c-28.161-24.862-56.455-49.571-84.477-74.592
		c29.029,23.866,57.785,48.046,86.675,72.072l86.228,72.584l21.546,18.157c7.183,6.078,14.293,12.723,20.311,20.214
		c6.071,7.466,11.292,15.7,15.242,24.556c3.96,8.847,6.627,18.297,7.857,27.933c1.193,9.645,0.888,19.431-0.572,28.988
		c-1.429,9.577-4.238,18.873-7.799,27.806c-7.225,17.855-17.908,34.116-30.837,48.292l-0.125,0.135l-0.155,0.135
		c-32.738,28.359-65.871,56.261-98.791,84.412l-98.971,84.202l-99.378,83.736l-49.893,41.626L148.574,843.413z"/>
</g>
</svg>
