<?xml version="1.0" encoding="UTF-8" standalone="no"?>
<!-- Created with Inkscape (http://www.inkscape.org/) -->

<svg
   xmlns:dc="http://purl.org/dc/elements/1.1/"
   xmlns:cc="http://creativecommons.org/ns#"
   xmlns:rdf="http://www.w3.org/1999/02/22-rdf-syntax-ns#"
   xmlns:svg="http://www.w3.org/2000/svg"
   xmlns="http://www.w3.org/2000/svg"
   xmlns:sodipodi="http://sodipodi.sourceforge.net/DTD/sodipodi-0.dtd"
   xmlns:inkscape="http://www.inkscape.org/namespaces/inkscape"
   width="262.43958mm"
   height="84.856255mm"
   viewBox="0 0 262.43958 84.856255"
   version="1.1"
   id="svg3922"
   inkscape:version="0.92.2 (5c3e80d, 2017-08-06)"
   sodipodi:docname="dfdfd.svg">
  <defs
     id="defs3916" />
  <sodipodi:namedview
     id="base"
     pagecolor="#ffffff"
     bordercolor="#666666"
     borderopacity="1.0"
     inkscape:pageopacity="0.0"
     inkscape:pageshadow="2"
     inkscape:zoom="0.35"
     inkscape:cx="227.37737"
     inkscape:cy="3.2154267"
     inkscape:document-units="mm"
     inkscape:current-layer="layer1"
     showgrid="false"
     inkscape:window-width="1440"
     inkscape:window-height="877"
     inkscape:window-x="-8"
     inkscape:window-y="-8"
     inkscape:window-maximized="1" />
  <metadata
     id="metadata3919">
    <rdf:RDF>
      <cc:Work
         rdf:about="">
        <dc:format>image/svg+xml</dc:format>
        <dc:type
           rdf:resource="http://purl.org/dc/dcmitype/StillImage" />
        <dc:title></dc:title>
      </cc:Work>
    </rdf:RDF>
  </metadata>
  <g
     inkscape:label="Camada 1"
     inkscape:groupmode="layer"
     id="layer1"
     transform="translate(-45.673071,-64.827826)">
    <path
       style="fill:#2b2b2b;fill-rule:evenodd;stroke:none;stroke-width:0.26458332;stroke-linecap:square;stroke-miterlimit:10"
       inkscape:connector-curvature="0"
       id="path3728"
       d="M 45.805363,64.960118 H 307.98035 V 149.55179 H 45.805363 Z" />
    <path
       style="fill:none;fill-rule:evenodd;stroke:#666666;stroke-width:0.26458332;stroke-linecap:butt;stroke-linejoin:round;stroke-miterlimit:10"
       inkscape:connector-curvature="0"
       id="path3730"
       d="M 45.805363,64.960118 H 307.98035 V 149.55179 H 45.805363 Z" />
    <path
       style="fill:#ff983d;fill-rule:nonzero;stroke:none;stroke-width:0.26458332;stroke-linecap:square;stroke-miterlimit:10"
       inkscape:connector-curvature="0"
       id="path3732"
       d="m 90.635693,78.96455 v 1.120349 H 89.374792 V 78.96455 Z m 0.144701,2.00918 v 3.63389 h 1.273299 q 0.380341,0 0.541571,0.148818 0.165369,0.1447 0.165369,0.380341 0,0.235651 -0.165369,0.384469 -0.16123,0.1447 -0.541571,0.1447 h -3.60494 q -0.380341,0 -0.545711,-0.1447 -0.161229,-0.148818 -0.161229,-0.388599 0,-0.231511 0.161229,-0.376211 0.16537,-0.148818 0.545711,-0.148818 h 1.2733 v -2.575562 h -0.85162 q -0.380339,0 -0.545711,-0.144688 -0.165359,-0.14883 -0.165359,-0.388612 0,-0.23151 0.161231,-0.3762 0.16536,-0.148828 0.549839,-0.148828 z m 5.81773,1.058328 v 2.575562 h 1.50895 q 0.384479,0 0.545709,0.148818 0.165362,0.1447 0.165362,0.380341 0,0.235651 -0.165362,0.384469 -0.16123,0.1447 -0.545709,0.1447 h -3.195672 q -0.384468,0 -0.549838,-0.1447 -0.161232,-0.148818 -0.161232,-0.388599 0,-0.231511 0.161232,-0.376211 0.16537,-0.148818 0.549838,-0.148818 h 0.628391 v -2.575562 h -0.504359 q -0.38448,0 -0.549842,-0.144688 -0.161229,-0.14883 -0.161229,-0.388612 0,-0.23151 0.161229,-0.3762 0.165362,-0.148828 0.549842,-0.148828 h 0.504359 v -0.405141 q 0,-0.690401 0.51676,-1.145151 0.520901,-0.458888 1.508951,-0.458888 0.438219,0 1.012859,0.0786 0.578779,0.0786 0.740011,0.22325 0.165359,0.14469 0.165359,0.37207 0,0.243909 -0.14469,0.39687 -0.14469,0.152958 -0.355539,0.152958 -0.0992,0 -0.297651,-0.0372 -0.65319,-0.128159 -1.16169,-0.128159 -0.525029,0 -0.727599,0.157099 -0.19844,0.157091 -0.19844,0.388612 v 0.405138 h 1.632979 q 0.384471,0 0.5457,0.148831 0.16536,0.14469 0.16536,0.384471 0,0.231508 -0.16536,0.380338 -0.161229,0.144691 -0.5457,0.144691 z" />
    <path
       style="fill:#fffb00;fill-rule:nonzero;stroke:none;stroke-width:0.26458332;stroke-linecap:square;stroke-miterlimit:10"
       inkscape:connector-curvature="0"
       id="path3734"
       d="m 102.57708,83.090399 q 0,-0.90124 0.30179,-1.827281 0.22324,-0.682128 0.68627,-1.52136 0.33487,-0.59944 0.49609,-0.735859 0.16123,-0.13643 0.35553,-0.13643 0.22738,0 0.38034,0.157099 0.1571,0.152961 0.1571,0.372071 0,0.14883 -0.12403,0.355531 -0.5581,0.913638 -0.81442,1.715648 -0.25218,0.802021 -0.25218,1.620581 0,0.82682 0.25218,1.628841 0.25632,0.802018 0.81442,1.715659 0.12403,0.20257 0.12403,0.359661 0,0.214979 -0.1571,0.367937 -0.15296,0.157102 -0.38034,0.157102 -0.19017,0 -0.33486,-0.124031 -0.2067,-0.181899 -0.5457,-0.810278 -0.49196,-0.917782 -0.67386,-1.508951 -0.28526,-0.90951 -0.28526,-1.78594 z" />
    <path
       style="fill:#ffffff;fill-rule:nonzero;stroke:none;stroke-width:0.26458332;stroke-linecap:square;stroke-miterlimit:10"
       inkscape:connector-curvature="0"
       id="path3736"
       d="m 107.28274,82.65218 5.25033,-2.61276 q 0.12815,-0.062 0.17776,-0.062 0.0786,0 0.12816,0.0496 0.0496,0.0455 0.0496,0.11989 0,0.16123 -0.22738,0.272849 l -4.49791,2.23243 3.54293,2.232422 q 0.13229,0.0827 0.13229,0.17776 0,0.10336 -0.0827,0.186039 -0.0827,0.0827 -0.18603,0.0827 -0.0579,0 -0.15296,-0.062 z m 11.04739,-1.02113 q 0.062,-0.297651 0.11989,-0.351391 0.0868,-0.0909 0.1943,-0.0909 0.0744,0 0.11989,0.0496 0.0496,0.0496 0.0496,0.11162 0,0.0455 -0.0124,0.136422 l -0.21497,0.979789 q -0.0331,0.161229 -0.11163,0.227369 -0.0744,0.0661 -0.16536,0.0661 -0.0786,0 -0.12816,-0.0455 -0.0496,-0.0455 -0.0496,-0.107479 0,-0.0331 0.0124,-0.103352 0.004,-0.0413 0.004,-0.0827 0,-0.351412 -0.33073,-0.603591 -0.43408,-0.34313 -1.15342,-0.34313 -0.62838,0 -1.18649,0.310059 -0.5581,0.30593 -0.90537,0.917771 -0.34726,0.607719 -0.34726,1.203029 0,0.673862 0.42994,1.087271 0.42995,0.409281 1.19063,0.409281 0.49609,0 1.05833,-0.181901 0.56224,-0.186031 1.08314,-0.603581 0.13229,-0.103349 0.21911,-0.103349 0.0703,0 0.11576,0.0455 0.0496,0.0413 0.0496,0.11575 0,0.103359 -0.10336,0.210838 -0.36793,0.384472 -1.09967,0.669732 -0.73174,0.28112 -1.47588,0.28112 -0.8723,0 -1.3932,-0.504362 -0.5209,-0.504359 -0.5209,-1.310518 0,-0.611852 0.26045,-1.169951 0.26045,-0.558109 0.66146,-0.946711 0.40101,-0.388609 0.91778,-0.628388 0.52089,-0.239781 1.16168,-0.239781 0.50023,0 0.88884,0.148831 0.3886,0.14469 0.66145,0.446479 z m 3.62665,4.204398 q -0.85163,0 -1.40147,-0.53744 -0.5457,-0.54157 -0.5457,-1.372518 0,-0.678 0.41342,-1.376661 0.4134,-0.7028 1.13275,-1.107951 0.72346,-0.405138 1.45933,-0.405138 0.8475,0 1.3932,0.53744 0.54984,0.53743 0.54984,1.339448 0,0.702802 -0.401,1.397331 -0.39689,0.690401 -1.12449,1.10794 -0.72761,0.417549 -1.47588,0.417549 z m 0.0992,-0.434078 q 0.60771,0 1.20303,-0.34313 0.59944,-0.343141 0.92604,-0.90951 0.33073,-0.570511 0.33073,-1.145151 0,-0.64905 -0.45062,-1.087271 -0.45062,-0.442349 -1.14515,-0.442349 -0.50435,0 -0.93431,0.19844 -0.42995,0.19843 -0.76481,0.51263 -0.33487,0.31419 -0.55397,0.752401 -0.21498,0.434089 -0.21498,0.89711 0,0.677989 0.45062,1.124479 0.45062,0.442351 1.15342,0.442351 z m 5.85494,-4.212661 -0.14056,0.65732 q 0.57051,-0.471289 0.96738,-0.640789 0.40101,-0.1695 0.86817,-0.1695 0.64078,0 1.00459,0.34313 0.3638,0.339 0.3638,0.880568 0,0.103351 -0.0248,0.239781 l -0.58291,2.732651 h 0.3638 q 0.14469,0 0.1943,0.0455 0.0537,0.0413 0.0537,0.124021 0,0.107489 -0.0868,0.186039 -0.0827,0.0786 -0.25217,0.0786 h -1.16995 q -0.1447,0 -0.19844,-0.0455 -0.0496,-0.0496 -0.0496,-0.132292 0,-0.103359 0.0868,-0.177768 0.0868,-0.0786 0.25632,-0.0786 h 0.36793 l 0.56224,-2.662372 q 0.0248,-0.119888 0.0248,-0.227378 0,-0.3762 -0.26458,-0.620122 -0.26045,-0.248039 -0.75241,-0.248039 -0.45062,0 -0.80615,0.181901 -0.3514,0.181898 -1.0666,0.85163 l -0.57878,2.72438 h 0.49196 q 0.14469,0 0.1943,0.0455 0.0537,0.0413 0.0537,0.124021 0,0.107489 -0.0868,0.186039 -0.0827,0.0786 -0.25218,0.0786 h -1.418 q -0.14469,0 -0.19844,-0.0455 -0.0496,-0.0496 -0.0496,-0.132292 0,-0.103359 0.0827,-0.177768 0.0868,-0.0786 0.26045,-0.0786 h 0.48783 l 0.76481,-3.60082 h -0.3638 q -0.1447,0 -0.19844,-0.0455 -0.0496,-0.0496 -0.0496,-0.132291 0,-0.103349 0.0827,-0.181899 0.0868,-0.0827 0.25631,-0.0827 z m 10.30325,-2.00918 -1.28571,6.052341 h 0.58292 q 0.14469,0 0.19429,0.0455 0.0537,0.0413 0.0537,0.124021 0,0.107489 -0.0868,0.186039 -0.0827,0.0786 -0.25218,0.0786 h -1.02526 l 0.18603,-0.864029 q -0.97151,1.033521 -2.15387,1.033521 -0.78548,0 -1.30225,-0.525031 -0.51676,-0.529159 -0.51676,-1.376659 0,-0.686261 0.41341,-1.397331 0.41755,-0.71107 1.09968,-1.10381 0.68212,-0.39687 1.34772,-0.39687 1.13688,0 1.69498,1.033529 l 0.51677,-2.451529 h -0.57878 q -0.14469,0 -0.19844,-0.0455 -0.0537,-0.0455 -0.0537,-0.128159 0,-0.103351 0.0868,-0.181901 0.091,-0.0827 0.26045,-0.0827 z m -3.66283,6.221841 q 0.46302,0 0.8723,-0.19431 0.41341,-0.194302 0.74414,-0.51676 0.33486,-0.322461 0.54157,-0.777211 0.2067,-0.45475 0.2067,-0.93018 0,-0.649049 -0.42581,-1.079 -0.4258,-0.42995 -1.07073,-0.42995 -0.91365,0 -1.64125,0.731739 -0.7276,0.727602 -0.7276,1.649511 0,0.68213 0.42581,1.116211 0.42995,0.42995 1.07487,0.42995 z m 8.14937,-6.436812 -0.23977,1.120341 h -0.63251 l 0.23563,-1.120341 z m -0.45475,2.224151 -0.85989,4.043161 h 1.70739 q 0.14469,0 0.1943,0.0455 0.0537,0.0413 0.0537,0.124021 0,0.107489 -0.0868,0.186039 -0.0827,0.0786 -0.25632,0.0786 h -3.84472 q -0.1447,0 -0.19844,-0.0455 -0.0496,-0.0496 -0.0496,-0.132292 0,-0.103359 0.0868,-0.177768 0.0868,-0.0786 0.25631,-0.0786 h 1.70326 l 0.76481,-3.600812 h -1.26503 q -0.14469,0 -0.19844,-0.0455 -0.0537,-0.0496 -0.0537,-0.132302 0,-0.103349 0.0868,-0.181899 0.0868,-0.0827 0.26045,-0.0827 z m 7.83931,0.442349 q 0.062,-0.297659 0.11989,-0.351399 0.0868,-0.0909 0.19431,-0.0909 0.0744,0 0.11988,0.0496 0.0496,0.0496 0.0496,0.11162 0,0.0455 -0.0124,0.136422 l -0.21496,0.979789 q -0.0331,0.161229 -0.11162,0.227369 -0.0744,0.0661 -0.16537,0.0661 -0.0785,0 -0.12816,-0.0455 -0.0496,-0.0455 -0.0496,-0.107479 0,-0.0331 0.0124,-0.10336 0.004,-0.0413 0.004,-0.0827 0,-0.351401 -0.33073,-0.60358 -0.43408,-0.34313 -1.15342,-0.34313 -0.62838,0 -1.18648,0.310059 -0.55811,0.30592 -0.90538,0.917771 -0.34726,0.607719 -0.34726,1.203029 0,0.673862 0.42995,1.087271 0.42994,0.409281 1.19062,0.409281 0.49609,0 1.05833,-0.181901 0.56224,-0.186039 1.08314,-0.603581 0.13229,-0.103359 0.21911,-0.103359 0.0703,0 0.11576,0.0455 0.0496,0.0413 0.0496,0.115761 0,0.103349 -0.10336,0.210838 -0.36793,0.384472 -1.09967,0.669732 -0.73174,0.281109 -1.47588,0.281109 -0.8723,0 -1.3932,-0.504359 -0.52089,-0.504362 -0.52089,-1.31051 0,-0.611852 0.26044,-1.169961 0.26045,-0.558099 0.66146,-0.946709 0.40101,-0.388601 0.91778,-0.62838 0.52089,-0.239781 1.16168,-0.239781 0.50023,0 0.88884,0.148831 0.3886,0.14469 0.66145,0.446479 z m -2.99723,4.87825 0.16536,-0.78962 q 0.0248,-0.11575 0.0786,-0.161219 0.0537,-0.0496 0.12403,-0.0496 0.0537,0 0.0868,0.0372 0.0372,0.0331 0.0372,0.0827 0,0.0331 -0.0124,0.091 l -0.10749,0.496088 q 0.24392,0.0331 0.36794,0.161232 0.12816,0.128159 0.12816,0.297659 0,0.272848 -0.23978,0.49196 -0.23978,0.21911 -0.64079,0.21911 -0.23151,0 -0.48369,-0.0868 -0.24805,-0.0868 -0.31419,-0.16537 -0.0413,-0.0455 -0.0413,-0.103352 0,-0.0703 0.0537,-0.128159 0.0579,-0.0579 0.13642,-0.0579 0.0496,0 0.10749,0.0372 0.31006,0.194299 0.59945,0.194299 0.22737,0 0.36793,-0.11575 0.14056,-0.111619 0.14056,-0.22325 0,-0.0868 -0.0703,-0.14469 -0.11163,-0.0827 -0.27286,-0.0827 z m 7.93026,-0.84336 0.1323,-0.62425 q -1.11208,0.79375 -2.19108,0.79375 -0.69454,0 -1.04594,-0.31006 -0.3514,-0.310059 -0.3514,-0.77308 0,-0.711068 0.62012,-1.21543 0.76895,-0.636648 2.00918,-0.636648 0.59531,0 1.3808,0.161229 l 0.14882,-0.7028 q 0.0165,-0.0786 0.0165,-0.157101 0,-0.297649 -0.23565,-0.47955 -0.32246,-0.248049 -0.91777,-0.248049 -0.50023,0 -1.53789,0.31006 -0.11989,0.0372 -0.1695,0.0372 -0.0703,0 -0.11575,-0.0455 -0.0455,-0.0496 -0.0455,-0.124029 0,-0.0992 0.0744,-0.17776 0.0744,-0.0786 0.58291,-0.206711 0.89297,-0.231511 1.32705,-0.231511 0.74,0 1.11207,0.326602 0.37621,0.322458 0.37621,0.73174 0,0.136419 -0.0331,0.26458 l -0.60771,2.873209 h 0.58291 q 0.1447,0 0.1943,0.0455 0.0537,0.0413 0.0537,0.124021 0,0.107489 -0.0868,0.186028 -0.0827,0.0786 -0.25218,0.0786 z m 0.46303,-2.16214 q -0.58705,-0.1695 -1.33533,-0.1695 -1.03766,0 -1.66191,0.47956 -0.47129,0.363802 -0.47129,0.82682 0,0.339 0.24392,0.549841 0.24804,0.210841 0.75654,0.210841 0.56637,0 1.09554,-0.219112 0.5333,-0.219109 1.16582,-0.719338 z m 0.95084,-3.869529 q 0.0703,0 0.11989,0.0496 0.0537,0.0496 0.0537,0.11162 0,0.0868 -0.0661,0.165372 -0.16123,0.181899 -0.56224,0.39687 -0.24805,0.136419 -0.48369,0.136419 -0.33487,0 -0.80615,-0.409271 -0.25219,-0.223239 -0.41755,-0.223239 -0.20671,0 -0.58291,0.28938 -0.1695,0.128159 -0.26872,0.128159 -0.0786,0 -0.12402,-0.0455 -0.0455,-0.0455 -0.0455,-0.119891 0,-0.0827 0.0744,-0.1695 0.14056,-0.165359 0.54983,-0.38033 0.25632,-0.13643 0.47956,-0.13643 0.16123,0 0.30593,0.0661 0.14882,0.062 0.45475,0.31006 0.31006,0.248039 0.47955,0.248039 0.19844,0 0.66146,-0.351391 0.0992,-0.0661 0.17777,-0.0661 z m 3.63079,6.201169 q -0.85163,0 -1.40147,-0.53744 -0.5457,-0.54156 -0.5457,-1.372518 0,-0.678 0.41341,-1.376661 0.41341,-0.7028 1.13275,-1.10794 0.72347,-0.405149 1.45934,-0.405149 0.84749,0 1.3932,0.53744 0.54983,0.53743 0.54983,1.339448 0,0.702802 -0.401,1.397331 -0.39688,0.690401 -1.12448,1.10795 -0.72761,0.417539 -1.47588,0.417539 z m 0.0992,-0.434078 q 0.60772,0 1.20303,-0.34313 0.59945,-0.34313 0.92605,-0.90951 0.33072,-0.570511 0.33072,-1.145151 0,-0.64905 -0.45062,-1.087271 -0.45061,-0.442349 -1.14514,-0.442349 -0.50437,0 -0.93431,0.19844 -0.42995,0.19844 -0.76482,0.51263 -0.33486,0.31419 -0.55397,0.752409 -0.21497,0.434081 -0.21497,0.897102 0,0.677989 0.45062,1.124479 0.45062,0.442351 1.15341,0.442351 z m 9.61699,-2.74919 -5.25033,2.616899 q -0.12402,0.062 -0.1819,0.062 -0.0786,0 -0.12816,-0.0496 -0.0455,-0.0496 -0.0455,-0.128162 0,-0.152958 0.22738,-0.268719 l 4.49378,-2.232419 -3.5388,-2.232422 q -0.13643,-0.0827 -0.13643,-0.181898 0,-0.103352 0.0827,-0.181901 0.0827,-0.0785 0.18604,-0.0785 0.0579,0 0.1571,0.062 z" />
    <path
       style="fill:#fffb00;fill-rule:nonzero;stroke:none;stroke-width:0.26458332;stroke-linecap:square;stroke-miterlimit:10"
       inkscape:connector-curvature="0"
       id="path3738"
       d="m 173.27354,83.090399 q 0,0.90537 -0.30179,1.835539 -0.22324,0.68213 -0.68626,1.517221 -0.33487,0.59945 -0.4961,0.73588 -0.16123,0.14056 -0.35553,0.14056 -0.22738,0 -0.38447,-0.157102 -0.15297,-0.152958 -0.15297,-0.367937 0,-0.157091 0.12403,-0.359661 0.5581,-0.913641 0.81028,-1.715659 0.25632,-0.802021 0.25632,-1.628841 0,-0.81856 -0.25632,-1.620581 -0.25218,-0.80201 -0.81028,-1.715648 -0.12403,-0.206701 -0.12403,-0.355531 0,-0.21911 0.15297,-0.372071 0.15709,-0.157099 0.38447,-0.157099 0.19017,0 0.33486,0.124021 0.20671,0.177768 0.54571,0.810289 0.49195,0.917771 0.67385,1.50481 0.28526,0.913641 0.28526,1.78181 z" />
    <path
       style="fill:#fffb00;fill-rule:nonzero;stroke:none;stroke-width:0.26458332;stroke-linecap:square;stroke-miterlimit:10"
       inkscape:connector-curvature="0"
       id="path3740"
       d="m 90.470334,95.798669 q 0.186029,0.21083 0.25218,0.40927 0.0703,0.198441 0.0703,0.64492 v 1.682591 q 0,0.214969 0.0786,0.301789 0.0786,0.0909 0.293521,0.10749 0.219109,0.02069 0.359669,0.1695 0.14056,0.152961 0.14056,0.367929 0,0.227381 -0.157099,0.380341 -0.157091,0.157101 -0.40101,0.157101 -0.347261,0 -0.669722,-0.186041 -0.318328,-0.181901 -0.553968,-0.59531 -0.152972,-0.268721 -0.152972,-0.62425 V 96.74951 q 0,-0.22324 -0.0744,-0.305922 -0.0703,-0.0827 -0.310052,-0.11162 -0.235648,-0.0289 -0.36381,-0.16537 -0.124018,-0.14056 -0.124018,-0.367929 0,-0.235649 0.124018,-0.372071 0.128162,-0.140559 0.36794,-0.1695 0.243912,-0.0289 0.293521,-0.0951 0.0868,-0.103359 0.0868,-0.322471 v -1.765258 q 0,-0.57051 0.413412,-0.983922 0.413419,-0.417549 0.95912,-0.417549 0.248049,0 0.40514,0.157101 0.157099,0.152959 0.157099,0.380339 0,0.210841 -0.14056,0.363799 -0.14056,0.148831 -0.363799,0.1695 -0.219112,0.02069 -0.27699,0.0909 -0.091,0.11162 -0.091,0.322461 v 1.682581 q 0,0.359669 -0.0703,0.553969 -0.0703,0.190169 -0.25218,0.405151 z" />
    <path
       style="fill:#93c47d;fill-rule:nonzero;stroke:none;stroke-width:0.26458332;stroke-linecap:square;stroke-miterlimit:10"
       inkscape:connector-curvature="0"
       id="path3742"
       d="m 104.90666,104.26533 -3.49333,7.48275 q -0.0868,0.19017 -0.22738,0.19017 -0.0868,0 -0.15296,-0.0661 -0.062,-0.062 -0.062,-0.14056 0,-0.062 0.0496,-0.1695 l 3.48919,-7.48275 q 0.0579,-0.11989 0.10749,-0.15296 0.0537,-0.0372 0.12402,-0.0372 0.0868,0 0.15296,0.0661 0.0661,0.062 0.0661,0.14056 0,0.0537 -0.0537,0.1695 z m 6.35103,0 -3.49333,7.48275 q -0.0868,0.19017 -0.22737,0.19017 -0.0868,0 -0.15296,-0.0661 -0.062,-0.062 -0.062,-0.14056 0,-0.062 0.0496,-0.1695 l 3.48919,-7.48275 q 0.0579,-0.11989 0.10748,-0.15296 0.0537,-0.0372 0.12403,-0.0372 0.0868,0 0.15296,0.0661 0.0661,0.062 0.0661,0.14056 0,0.0537 -0.0537,0.1695 z m 6.74791,4.66742 h -4.4235 q 0.11575,0.83922 0.70693,1.35599 0.59118,0.51263 1.46348,0.51263 0.48782,0 1.017,-0.1571 0.53329,-0.16123 0.87229,-0.42581 0.0951,-0.0786 0.1695,-0.0786 0.0827,0 0.14469,0.0661 0.062,0.062 0.062,0.15296 0,0.0868 -0.0827,0.1695 -0.24804,0.25631 -0.88057,0.48369 -0.63251,0.22324 -1.30224,0.22324 -1.11621,0 -1.86448,-0.73174 -0.74415,-0.73173 -0.74415,-1.7694 0,-0.94671 0.69867,-1.62057 0.70281,-0.67799 1.73632,-0.67799 1.06248,0 1.74874,0.69453 0.69039,0.69453 0.678,1.80247 z m -0.43821,-0.44235 q -0.12816,-0.71521 -0.678,-1.16582 -0.54984,-0.45062 -1.31052,-0.45062 -0.76067,0 -1.31051,0.44648 -0.5457,0.44235 -0.678,1.16996 z m 5.87561,-1.61644 q 0,-0.14883 0.062,-0.21498 0.062,-0.0703 0.15709,-0.0703 0.0951,0 0.1571,0.0703 0.062,0.0661 0.062,0.22738 v 0.74414 q 0,0.15296 -0.062,0.22324 -0.062,0.0661 -0.1571,0.0661 -0.091,0 -0.14883,-0.0579 -0.0579,-0.0579 -0.0703,-0.18603 -0.0289,-0.31006 -0.31832,-0.51263 -0.42582,-0.28939 -1.12448,-0.28939 -0.72761,0 -1.12862,0.29352 -0.30591,0.22325 -0.30591,0.4961 0,0.31005 0.35966,0.51676 0.24804,0.1447 0.94257,0.22324 0.90537,0.0992 1.25678,0.22324 0.50022,0.18191 0.74414,0.50437 0.24804,0.31832 0.24804,0.69039 0,0.54984 -0.5333,0.98392 -0.5333,0.42995 -1.56269,0.42995 -1.02526,0 -1.68259,-0.5209 0,0.17364 -0.0207,0.22738 -0.0207,0.0496 -0.0744,0.0868 -0.0537,0.0372 -0.12401,0.0372 -0.0909,0 -0.15296,-0.0661 -0.062,-0.0703 -0.062,-0.22324 v -0.89297 q 0,-0.1571 0.0579,-0.22324 0.062,-0.0661 0.15709,-0.0661 0.0951,0 0.1571,0.0661 0.0661,0.062 0.0661,0.1695 0,0.23977 0.11989,0.39687 0.18189,0.24805 0.57464,0.41341 0.39688,0.16123 0.97151,0.16123 0.84749,0 1.26091,-0.31419 0.41342,-0.31419 0.41342,-0.66559 0,-0.40515 -0.42168,-0.64906 -0.42168,-0.23978 -1.23197,-0.32246 -0.80615,-0.0827 -1.15756,-0.21497 -0.35139,-0.13643 -0.54983,-0.40515 -0.1943,-0.26871 -0.1943,-0.57877 0,-0.55811 0.54569,-0.8847 0.54985,-0.33073 1.30638,-0.33073 0.90124,0 1.46349,0.43821 z m 6.35104,0 q 0,-0.14883 0.062,-0.21498 0.062,-0.0703 0.15708,-0.0703 0.0951,0 0.15711,0.0703 0.062,0.0661 0.062,0.22738 v 0.74414 q 0,0.15296 -0.062,0.22324 -0.062,0.0661 -0.15711,0.0661 -0.091,0 -0.14882,-0.0579 -0.0579,-0.0579 -0.0703,-0.18603 -0.0289,-0.31006 -0.31832,-0.51263 -0.42582,-0.28939 -1.12449,-0.28939 -0.72761,0 -1.1286,0.29352 -0.30593,0.22325 -0.30593,0.4961 0,0.31005 0.35966,0.51676 0.24805,0.1447 0.94259,0.22324 0.90537,0.0992 1.25677,0.22324 0.50023,0.18191 0.74413,0.50437 0.24805,0.31832 0.24805,0.69039 0,0.54984 -0.5333,0.98392 -0.53331,0.42995 -1.56269,0.42995 -1.02526,0 -1.6826,-0.5209 0,0.17364 -0.0207,0.22738 -0.0207,0.0496 -0.0744,0.0868 -0.0537,0.0372 -0.12402,0.0372 -0.091,0 -0.15296,-0.0661 -0.062,-0.0703 -0.062,-0.22324 v -0.89297 q 0,-0.1571 0.0579,-0.22324 0.062,-0.0661 0.15709,-0.0661 0.0951,0 0.1571,0.0661 0.0661,0.062 0.0661,0.1695 0,0.23977 0.11989,0.39687 0.1819,0.24805 0.57464,0.41341 0.39688,0.16123 0.97152,0.16123 0.84749,0 1.2609,-0.31419 0.41341,-0.31419 0.41341,-0.66559 0,-0.40515 -0.42168,-0.64906 -0.42168,-0.23978 -1.23196,-0.32246 -0.80616,-0.0827 -1.15755,-0.21497 -0.35141,-0.13643 -0.54984,-0.40515 -0.1943,-0.26871 -0.1943,-0.57877 0,-0.55811 0.5457,-0.8847 0.54983,-0.33073 1.30638,-0.33073 0.90124,0 1.46348,0.43821 z m 7.26466,2.05879 h -4.4235 q 0.11575,0.83922 0.70693,1.35599 0.59118,0.51263 1.46348,0.51263 0.48782,0 1.01699,-0.1571 0.53331,-0.16123 0.8723,-0.42581 0.0951,-0.0786 0.1695,-0.0786 0.0827,0 0.14469,0.0661 0.062,0.062 0.062,0.15296 0,0.0868 -0.0827,0.1695 -0.24805,0.25631 -0.88057,0.48369 -0.63252,0.22324 -1.30224,0.22324 -1.11621,0 -1.86449,-0.73174 -0.74414,-0.73173 -0.74414,-1.7694 0,-0.94671 0.69867,-1.62057 0.7028,-0.67799 1.73633,-0.67799 1.06246,0 1.74872,0.69453 0.6904,0.69453 0.678,1.80247 z m -0.43822,-0.44235 q -0.12814,-0.71521 -0.67799,-1.16582 -0.54983,-0.45062 -1.31051,-0.45062 -0.76068,0 -1.31051,0.44648 -0.54571,0.44235 -0.678,1.16996 z m 9.15913,-3.91087 v 2.87734 q 0.78548,-1.02113 1.89343,-1.02113 0.95084,0 1.62884,0.6904 0.67799,0.6904 0.67799,1.69085 0,1.01286 -0.68626,1.71566 -0.68213,0.7028 -1.62057,0.7028 -1.13689,0 -1.89343,-1.02113 v 0.85163 h -1.02111 q -0.15297,0 -0.22325,-0.062 -0.0661,-0.062 -0.0661,-0.1571 0,-0.0951 0.0661,-0.15296 0.0703,-0.062 0.22325,-0.062 h 0.58703 v -5.61413 h -0.58703 q -0.15297,0 -0.22325,-0.062 -0.0661,-0.062 -0.0661,-0.15709 0,-0.0951 0.0661,-0.1571 0.0703,-0.062 0.22325,-0.062 z m 3.76618,4.25813 q 0,-0.82269 -0.56637,-1.39319 -0.56224,-0.57051 -1.31465,-0.57051 -0.75655,0 -1.31879,0.57051 -0.56224,0.5705 -0.56224,1.39319 0,0.82269 0.56224,1.3932 0.56224,0.57051 1.31879,0.57051 0.75241,0 1.31465,-0.57051 0.56637,-0.57051 0.56637,-1.3932 z m 4.43694,-4.25813 v 6.05234 h 1.70739 q 0.16123,0 0.22737,0.062 0.0662,0.0579 0.0662,0.15296 0,0.0951 -0.0662,0.1571 -0.0661,0.062 -0.22737,0.062 h -3.84473 q -0.1571,0 -0.22324,-0.062 -0.0661,-0.062 -0.0661,-0.1571 0,-0.0951 0.0661,-0.15296 0.0661,-0.062 0.22324,-0.062 h 1.70326 v -5.61413 h -1.24851 q -0.15709,0 -0.22737,-0.062 -0.0661,-0.062 -0.0661,-0.15709 0,-0.0951 0.0661,-0.1571 0.0661,-0.062 0.22737,-0.062 z m 8.55865,4.25813 q 0,0.99219 -0.71107,1.69499 -0.71107,0.7028 -1.71152,0.7028 -1.01286,0 -1.72393,-0.7028 -0.70693,-0.70693 -0.70693,-1.69499 0,-0.99218 0.70693,-1.69498 0.71107,-0.70694 1.72393,-0.70694 1.00045,0 1.71152,0.7028 0.71107,0.7028 0.71107,1.69912 z m -0.43822,0 q 0,-0.81442 -0.58291,-1.38906 -0.57877,-0.57464 -1.4056,-0.57464 -0.82682,0 -1.40973,0.57877 -0.58291,0.57465 -0.58291,1.38493 0,0.80615 0.58291,1.38493 0.58291,0.57878 1.40973,0.57878 0.82683,0 1.4056,-0.57464 0.58291,-0.57878 0.58291,-1.38907 z m 6.17327,-1.80661 v -0.14469 q 0,-0.16123 0.062,-0.22738 0.062,-0.0703 0.1571,-0.0703 0.0992,0 0.16123,0.0703 0.062,0.0661 0.062,0.22738 v 0.97979 q -0.008,0.16123 -0.0662,0.22737 -0.0579,0.0661 -0.15709,0.0661 -0.0868,0 -0.14883,-0.0579 -0.0579,-0.0579 -0.0703,-0.19843 -0.0289,-0.36794 -0.48369,-0.69867 -0.45062,-0.33073 -1.21543,-0.33073 -0.96738,0 -1.46761,0.60772 -0.50023,0.60358 -0.50023,1.38079 0,0.84336 0.54984,1.3932 0.55397,0.5457 1.43454,0.5457 0.50436,0 1.02939,-0.18604 0.52503,-0.18603 0.95084,-0.59944 0.10749,-0.10335 0.19017,-0.10335 0.0868,0 0.1447,0.062 0.062,0.0579 0.062,0.14469 0,0.22324 -0.5209,0.56224 -0.84336,0.55397 -1.87689,0.55397 -1.05006,0 -1.72392,-0.66972 -0.67386,-0.66973 -0.67386,-1.69499 0,-1.05007 0.6904,-1.74047 0.69039,-0.69453 1.73632,-0.69453 1.00046,0 1.67432,0.59532 z m 6.96701,1.80661 q 0,0.99219 -0.71106,1.69499 -0.71107,0.7028 -1.71153,0.7028 -1.01285,0 -1.72392,-0.7028 -0.70694,-0.70693 -0.70694,-1.69499 0,-0.99218 0.70694,-1.69498 0.71107,-0.70694 1.72392,-0.70694 1.00046,0 1.71153,0.7028 0.71106,0.7028 0.71106,1.69912 z m -0.43821,0 q 0,-0.81442 -0.58291,-1.38906 -0.57878,-0.57464 -1.4056,-0.57464 -0.82682,0 -1.40973,0.57877 -0.58291,0.57465 -0.58291,1.38493 0,0.80615 0.58291,1.38493 0.58291,0.57878 1.40973,0.57878 0.82682,0 1.4056,-0.57464 0.58291,-0.57878 0.58291,-1.38907 z m 12.14809,-1.9637 q 0,-0.14883 0.062,-0.21498 0.062,-0.0703 0.15709,-0.0703 0.0951,0 0.1571,0.0703 0.062,0.0661 0.062,0.22738 v 0.74414 q 0,0.15296 -0.062,0.22324 -0.062,0.0661 -0.1571,0.0661 -0.0909,0 -0.14883,-0.0579 -0.0579,-0.0579 -0.0703,-0.18603 -0.0289,-0.31006 -0.31832,-0.51263 -0.42582,-0.28939 -1.12448,-0.28939 -0.72761,0 -1.12862,0.29352 -0.30592,0.22325 -0.30592,0.4961 0,0.31005 0.35967,0.51676 0.24805,0.1447 0.94258,0.22324 0.90537,0.0992 1.25677,0.22324 0.50022,0.18191 0.74414,0.50437 0.24805,0.31832 0.24805,0.69039 0,0.54984 -0.53331,0.98392 -0.5333,0.42995 -1.56269,0.42995 -1.02526,0 -1.68259,-0.5209 0,0.17364 -0.0207,0.22738 -0.0207,0.0496 -0.0744,0.0868 -0.0537,0.0372 -0.12403,0.0372 -0.0909,0 -0.15296,-0.0661 -0.062,-0.0703 -0.062,-0.22324 v -0.89297 q 0,-0.1571 0.0579,-0.22324 0.062,-0.0661 0.15709,-0.0661 0.0951,0 0.1571,0.0661 0.0661,0.062 0.0661,0.1695 0,0.23977 0.11989,0.39687 0.1819,0.24805 0.57464,0.41341 0.39687,0.16123 0.97152,0.16123 0.84749,0 1.2609,-0.31419 0.41341,-0.31419 0.41341,-0.66559 0,-0.40515 -0.42168,-0.64906 -0.42168,-0.23978 -1.23197,-0.32246 -0.80615,-0.0827 -1.15755,-0.21497 -0.3514,-0.13643 -0.54983,-0.40515 -0.19431,-0.26871 -0.19431,-0.57877 0,-0.55811 0.5457,-0.8847 0.54984,-0.33073 1.30639,-0.33073 0.90123,0 1.46347,0.43821 z m 7.34323,1.9637 q 0,0.99219 -0.71107,1.69499 -0.71107,0.7028 -1.71153,0.7028 -1.01285,0 -1.72392,-0.7028 -0.70693,-0.70693 -0.70693,-1.69499 0,-0.99218 0.70693,-1.69498 0.71107,-0.70694 1.72392,-0.70694 1.00046,0 1.71153,0.7028 0.71107,0.7028 0.71107,1.69912 z m -0.43822,0 q 0,-0.81442 -0.58291,-1.38906 -0.57878,-0.57464 -1.4056,-0.57464 -0.82682,0 -1.40973,0.57877 -0.58291,0.57465 -0.58291,1.38493 0,0.80615 0.58291,1.38493 0.58291,0.57878 1.40973,0.57878 0.82682,0 1.4056,-0.57464 0.58291,-0.57878 0.58291,-1.38907 z m -1.2361,-4.20439 -1.2237,1.0542 q -0.11575,0.10335 -0.19843,0.10335 -0.0868,0 -0.15297,-0.0661 -0.062,-0.0661 -0.062,-0.1571 0,-0.0537 0.0207,-0.0951 0.0248,-0.0413 0.10748,-0.11575 l 1.21957,-1.0542 q 0.11989,-0.10335 0.20257,-0.10335 0.0868,0 0.14883,0.0661 0.0661,0.062 0.0661,0.15296 0,0.0537 -0.0248,0.0992 -0.0207,0.0413 -0.10335,0.11575 z m 13.38419,2.24069 q 0,-0.14883 0.062,-0.21498 0.062,-0.0703 0.15709,-0.0703 0.0951,0 0.1571,0.0703 0.062,0.0661 0.062,0.22738 v 0.74414 q 0,0.15296 -0.062,0.22324 -0.062,0.0661 -0.1571,0.0661 -0.0909,0 -0.14882,-0.0579 -0.0579,-0.0579 -0.0703,-0.18603 -0.0289,-0.31006 -0.31832,-0.51263 -0.42582,-0.28939 -1.12448,-0.28939 -0.7276,0 -1.12861,0.29352 -0.30593,0.22325 -0.30593,0.4961 0,0.31005 0.35967,0.51676 0.24805,0.1447 0.94258,0.22324 0.90537,0.0992 1.25677,0.22324 0.50023,0.18191 0.74414,0.50437 0.24805,0.31832 0.24805,0.69039 0,0.54984 -0.53331,0.98392 -0.5333,0.42995 -1.56269,0.42995 -1.02526,0 -1.68258,-0.5209 0,0.17364 -0.0207,0.22738 -0.0207,0.0496 -0.0744,0.0868 -0.0537,0.0372 -0.12403,0.0372 -0.0909,0 -0.15296,-0.0661 -0.062,-0.0703 -0.062,-0.22324 v -0.89297 q 0,-0.1571 0.0579,-0.22324 0.062,-0.0661 0.15709,-0.0661 0.0951,0 0.1571,0.0661 0.0661,0.062 0.0661,0.1695 0,0.23977 0.11989,0.39687 0.1819,0.24805 0.57464,0.41341 0.39687,0.16123 0.97152,0.16123 0.84749,0 1.2609,-0.31419 0.41341,-0.31419 0.41341,-0.66559 0,-0.40515 -0.42168,-0.64906 -0.42168,-0.23978 -1.23196,-0.32246 -0.80616,-0.0827 -1.15756,-0.21497 -0.3514,-0.13643 -0.54983,-0.40515 -0.19431,-0.26871 -0.19431,-0.57877 0,-0.55811 0.54571,-0.8847 0.54983,-0.33073 1.30638,-0.33073 0.90123,0 1.46347,0.43821 z m 7.26468,2.05879 h -4.42351 q 0.11576,0.83922 0.70694,1.35599 0.59118,0.51263 1.46348,0.51263 0.48782,0 1.01699,-0.1571 0.5333,-0.16123 0.87229,-0.42581 0.0951,-0.0786 0.16951,-0.0786 0.0827,0 0.14469,0.0661 0.062,0.062 0.062,0.15296 0,0.0868 -0.0827,0.1695 -0.24805,0.25631 -0.88057,0.48369 -0.63252,0.22324 -1.30224,0.22324 -1.11621,0 -1.86449,-0.73174 -0.74414,-0.73173 -0.74414,-1.7694 0,-0.94671 0.69867,-1.62057 0.70279,-0.67799 1.73632,-0.67799 1.06247,0 1.74873,0.69453 0.6904,0.69453 0.678,1.80247 z m -0.43822,-0.44235 q -0.12816,-0.71521 -0.67799,-1.16582 -0.54984,-0.45062 -1.31052,-0.45062 -0.76067,0 -1.31051,0.44648 -0.54571,0.44235 -0.678,1.16996 z m 3.92431,-1.90169 v 1.09553 q 0.84749,-0.76481 1.26504,-0.98392 0.42168,-0.2191 0.78135,-0.2191 0.38447,0 0.71933,0.26045 0.33487,0.26045 0.33487,0.39687 0,0.0992 -0.0661,0.16537 -0.0661,0.062 -0.16123,0.062 -0.0537,0 -0.0909,-0.0165 -0.0331,-0.0207 -0.13229,-0.1199 -0.1819,-0.17776 -0.31833,-0.24391 -0.13229,-0.0703 -0.26045,-0.0703 -0.28525,0 -0.68626,0.22738 -0.40101,0.22738 -1.38493,1.11208 v 2.37711 h 1.92236 q 0.1571,0 0.22325,0.062 0.0703,0.0579 0.0703,0.15297 0,0.0951 -0.0703,0.15709 -0.0661,0.062 -0.22325,0.062 h -3.40651 q -0.15709,0 -0.22324,-0.0579 -0.0661,-0.062 -0.0661,-0.15296 0,-0.091 0.062,-0.14882 0.0661,-0.0579 0.22737,-0.0579 h 1.05007 v -3.61736 h -0.80202 q -0.1571,0 -0.22324,-0.062 -0.0661,-0.062 -0.0661,-0.16123 0,-0.0951 0.062,-0.15709 0.0661,-0.062 0.22738,-0.062 z m 8.1163,4.47724 v -0.62425 q -0.94671,0.79375 -2.02158,0.79375 -0.77722,0 -1.21956,-0.39274 -0.43822,-0.39688 -0.43822,-0.97152 0,-0.62838 0.57878,-1.09967 0.57877,-0.47129 1.69085,-0.47129 0.29765,0 0.64905,0.0413 0.3514,0.0372 0.76068,0.11989 v -0.7028 q 0,-0.35554 -0.33073,-0.62012 -0.33073,-0.26458 -0.99219,-0.26458 -0.50436,0 -1.42213,0.29352 -0.16537,0.0537 -0.21084,0.0537 -0.0827,0 -0.14469,-0.062 -0.0579,-0.062 -0.0579,-0.1571 0,-0.0868 0.0537,-0.13642 0.0703,-0.0785 0.58291,-0.21498 0.80615,-0.21497 1.21956,-0.21497 0.82269,0 1.28158,0.40514 0.45889,0.40515 0.45889,0.91778 v 2.87321 h 0.57877 q 0.16123,0 0.22738,0.062 0.0703,0.0579 0.0703,0.15296 0,0.0951 -0.0703,0.1571 -0.0661,0.062 -0.22738,0.062 z m 0,-2.16214 q -0.30592,-0.0868 -0.64906,-0.12816 -0.33899,-0.0413 -0.7152,-0.0413 -0.94671,0 -1.47588,0.40928 -0.40514,0.30592 -0.40514,0.7276 0,0.39274 0.30592,0.66146 0.31006,0.26872 0.89711,0.26872 0.56637,0 1.04593,-0.22324 0.48369,-0.22738 0.99632,-0.71521 z m -0.49609,-4.27054 -1.2237,1.0542 q -0.11576,0.10335 -0.19844,0.10335 -0.0868,0 -0.15296,-0.0661 -0.062,-0.0661 -0.062,-0.1571 0,-0.0537 0.0207,-0.0951 0.0248,-0.0413 0.10749,-0.11575 l 1.21956,-1.0542 q 0.11989,-0.10335 0.20257,-0.10335 0.0868,0 0.14883,0.0661 0.0661,0.062 0.0661,0.15296 0,0.0537 -0.0248,0.0992 -0.0207,0.0413 -0.10335,0.11575 z m 14.29783,4.29948 h -4.4235 q 0.11576,0.83922 0.70693,1.35599 0.59118,0.51263 1.46348,0.51263 0.48782,0 1.01699,-0.1571 0.5333,-0.16123 0.8723,-0.42581 0.0951,-0.0786 0.1695,-0.0786 0.0827,0 0.14469,0.0661 0.062,0.062 0.062,0.15296 0,0.0868 -0.0827,0.1695 -0.24805,0.25631 -0.88056,0.48369 -0.63252,0.22324 -1.30225,0.22324 -1.11621,0 -1.86449,-0.73174 -0.74414,-0.73173 -0.74414,-1.7694 0,-0.94671 0.69867,-1.62057 0.7028,-0.67799 1.73633,-0.67799 1.06246,0 1.74873,0.69453 0.69039,0.69453 0.67799,1.80247 z m -0.43821,-0.44235 q -0.12816,-0.71521 -0.678,-1.16582 -0.54984,-0.45062 -1.31051,-0.45062 -0.76068,0 -1.31052,0.44648 -0.5457,0.44235 -0.67799,1.16996 z m 4.73872,0.23564 1.98851,1.90583 q 0.19844,0 0.24805,0.0207 0.0537,0.0165 0.0909,0.0744 0.0413,0.0537 0.0413,0.11989 0,0.0951 -0.0703,0.1571 -0.0661,0.062 -0.22737,0.062 h -1.3932 q -0.16123,0 -0.22738,-0.062 -0.0661,-0.062 -0.0661,-0.1571 0,-0.0951 0.0661,-0.15296 0.0661,-0.062 0.22738,-0.062 h 0.71933 l -1.69085,-1.61644 -1.67845,1.61644 h 0.72347 q 0.15296,0 0.21911,0.062 0.0703,0.0579 0.0703,0.15296 0,0.0951 -0.0703,0.1571 -0.0661,0.062 -0.21911,0.062 h -1.41387 q -0.15296,0 -0.22324,-0.062 -0.0661,-0.062 -0.0661,-0.1571 0,-0.0661 0.0372,-0.11989 0.0414,-0.0579 0.091,-0.0744 0.0496,-0.0207 0.24392,-0.0207 l 1.99264,-1.90583 -1.7694,-1.69499 q -0.18604,0 -0.23564,-0.0207 -0.0496,-0.0207 -0.0868,-0.0786 -0.0372,-0.0579 -0.0372,-0.12402 0,-0.0951 0.0661,-0.1571 0.0661,-0.062 0.22737,-0.062 h 1.18236 q 0.16123,0 0.22324,0.062 0.0662,0.062 0.0662,0.16124 0,0.0951 -0.0662,0.15709 -0.062,0.062 -0.22324,0.062 h -0.51676 l 1.46347,1.40974 1.47175,-1.40974 h -0.51677 q -0.15296,0 -0.22324,-0.062 -0.0703,-0.062 -0.0703,-0.16123 0,-0.0951 0.0661,-0.1571 0.0661,-0.062 0.22737,-0.062 h 1.18236 q 0.1571,0 0.22324,0.062 0.0661,0.062 0.0661,0.16124 0,0.062 -0.0372,0.11988 -0.0372,0.0579 -0.0868,0.0786 -0.0496,0.0207 -0.23564,0.0207 z m 8.40156,0.20671 h -4.42351 q 0.11575,0.83922 0.70694,1.35599 0.59118,0.51263 1.46349,0.51263 0.48781,0 1.01697,-0.1571 0.5333,-0.16123 0.87231,-0.42581 0.0951,-0.0786 0.16949,-0.0786 0.0827,0 0.1447,0.0661 0.062,0.062 0.062,0.15296 0,0.0868 -0.0827,0.1695 -0.24805,0.25631 -0.88059,0.48369 -0.63251,0.22324 -1.30222,0.22324 -1.11623,0 -1.8645,-0.73174 -0.74414,-0.73173 -0.74414,-1.7694 0,-0.94671 0.69866,-1.62057 0.70281,-0.67799 1.73633,-0.67799 1.06246,0 1.74874,0.69453 0.6904,0.69453 0.67799,1.80247 z m -0.43823,-0.44235 q -0.12814,-0.71521 -0.67799,-1.16582 -0.54983,-0.45062 -1.31051,-0.45062 -0.76068,0 -1.31051,0.44648 -0.5457,0.44235 -0.67799,1.16996 z m 6.25184,-1.45935 v -0.14469 q 0,-0.16123 0.062,-0.22738 0.062,-0.0703 0.15711,-0.0703 0.0992,0 0.16124,0.0703 0.062,0.0661 0.062,0.22738 v 0.97979 q -0.008,0.16123 -0.0661,0.22737 -0.0579,0.0661 -0.15709,0.0661 -0.0868,0 -0.14882,-0.0579 -0.0579,-0.0579 -0.0703,-0.19843 -0.0289,-0.36794 -0.48371,-0.69867 -0.45061,-0.33073 -1.21542,-0.33073 -0.96739,0 -1.46761,0.60772 -0.50022,0.60358 -0.50022,1.38079 0,0.84336 0.54983,1.3932 0.55398,0.5457 1.43454,0.5457 0.50435,0 1.02939,-0.18604 0.52504,-0.18603 0.95086,-0.59944 0.10747,-0.10335 0.19015,-0.10335 0.0868,0 0.1447,0.062 0.062,0.0579 0.062,0.14469 0,0.22324 -0.52091,0.56224 -0.84336,0.55397 -1.87687,0.55397 -1.05008,0 -1.72395,-0.66972 -0.67384,-0.66973 -0.67384,-1.69499 0,-1.05007 0.69038,-1.74047 0.6904,-0.69453 1.73633,-0.69453 1.00046,0 1.67433,0.59532 z m 6.02856,4.0349 v -0.63665 q -0.88884,0.80615 -1.92236,0.80615 -0.63666,0 -0.96739,-0.34727 -0.42995,-0.45475 -0.42995,-1.05833 v -2.7988 h -0.5829 q -0.15709,0 -0.22323,-0.062 -0.0661,-0.062 -0.0661,-0.16123 0,-0.0951 0.0661,-0.15709 0.0661,-0.062 0.22323,-0.062 h 1.017 v 3.24114 q 0,0.42581 0.26871,0.69866 0.26871,0.27286 0.67387,0.27286 1.05833,0 1.94302,-0.97152 v -2.7988 h -0.80201 q -0.15711,0 -0.22325,-0.062 -0.0661,-0.062 -0.0661,-0.16123 0,-0.0951 0.0661,-0.15709 0.0661,-0.062 0.22325,-0.062 h 1.23608 v 4.04316 h 0.36381 q 0.15711,0 0.22325,0.062 0.0661,0.0579 0.0661,0.15296 0,0.0951 -0.0661,0.1571 -0.0661,0.062 -0.22325,0.062 z m 3.97391,-4.47724 h 2.35646 q 0.15295,0 0.2191,0.062 0.0703,0.062 0.0703,0.16123 0,0.0951 -0.0703,0.15709 -0.0661,0.062 -0.2191,0.062 h -2.35646 v 2.88562 q 0,0.38032 0.30178,0.63251 0.30181,0.25218 0.88472,0.25218 0.4382,0 0.95083,-0.1323 0.51263,-0.13229 0.7979,-0.29764 0.10335,-0.0661 0.1695,-0.0661 0.0827,0 0.1447,0.0661 0.062,0.062 0.062,0.15295 0,0.0744 -0.0661,0.14469 -0.16536,0.1695 -0.80613,0.36794 -0.63667,0.19844 -1.21957,0.19844 -0.76068,0 -1.21129,-0.35552 -0.45061,-0.35555 -0.45061,-0.96325 v -2.88562 h -0.79791 q -0.15708,0 -0.22322,-0.062 -0.0661,-0.062 -0.0661,-0.16123 0,-0.0951 0.0661,-0.15709 0.0661,-0.062 0.22322,-0.062 h 0.79791 v -1.28158 q 0,-0.15296 0.062,-0.21911 0.062,-0.0703 0.15711,-0.0703 0.0992,0 0.16121,0.0703 0.062,0.0661 0.062,0.21911 z m 8.48836,4.47724 v -0.62425 q -0.9467,0.79375 -2.02157,0.79375 -0.77722,0 -1.21957,-0.39274 -0.43821,-0.39688 -0.43821,-0.97152 0,-0.62838 0.57878,-1.09967 0.57877,-0.47129 1.69084,-0.47129 0.29766,0 0.64905,0.0413 0.3514,0.0372 0.76068,0.11989 v -0.7028 q 0,-0.35554 -0.33073,-0.62012 -0.33073,-0.26458 -0.99219,-0.26458 -0.50437,0 -1.42213,0.29352 -0.16537,0.0537 -0.21082,0.0537 -0.0827,0 -0.1447,-0.062 -0.0579,-0.062 -0.0579,-0.1571 0,-0.0868 0.0538,-0.13642 0.0703,-0.0785 0.5829,-0.21498 0.80614,-0.21497 1.21955,-0.21497 0.82269,0 1.28159,0.40514 0.45886,0.40515 0.45886,0.91778 v 2.87321 h 0.57878 q 0.16124,0 0.22738,0.062 0.0703,0.0579 0.0703,0.15296 0,0.0951 -0.0703,0.1571 -0.0661,0.062 -0.22738,0.062 z m 0,-2.16214 q -0.30594,-0.0868 -0.64905,-0.12816 -0.33901,-0.0413 -0.71522,-0.0413 -0.94671,0 -1.47585,0.40928 -0.40515,0.30592 -0.40515,0.7276 0,0.39274 0.30594,0.66146 0.31003,0.26872 0.89707,0.26872 0.56639,0 1.04595,-0.22324 0.48368,-0.22738 0.99631,-0.71521 z m 7.23159,-4.32428 v 6.05234 h 0.57878 q 0.15711,0 0.22325,0.062 0.0703,0.0579 0.0703,0.15296 0,0.0951 -0.0703,0.1571 -0.0661,0.062 -0.22325,0.062 h -1.02113 v -0.86403 q -0.7524,1.03353 -1.91408,1.03353 -0.59118,0 -1.13276,-0.31006 -0.53742,-0.31419 -0.85161,-0.89297 -0.31007,-0.57877 -0.31007,-1.19476 0,-0.62011 0.31007,-1.19476 0.31419,-0.57877 0.85161,-0.89297 0.54158,-0.31419 1.13689,-0.31419 1.13689,0 1.90995,1.03353 v -2.45153 h -0.57878 q -0.15708,0 -0.22736,-0.062 -0.0661,-0.062 -0.0661,-0.15709 0,-0.0951 0.0661,-0.1571 0.0703,-0.062 0.22736,-0.062 z m -0.44235,4.25813 q 0,-0.82682 -0.55809,-1.39319 -0.55811,-0.57051 -1.32707,-0.57051 -0.77306,0 -1.33117,0.57051 -0.55811,0.56637 -0.55811,1.39319 0,0.82269 0.55811,1.3932 0.55811,0.57051 1.33117,0.57051 0.76896,0 1.32707,-0.57051 0.55809,-0.57051 0.55809,-1.3932 z m 7.09104,0 q 0,0.99219 -0.71107,1.69499 -0.71106,0.7028 -1.71151,0.7028 -1.01287,0 -1.72394,-0.7028 -0.70692,-0.70693 -0.70692,-1.69499 0,-0.99218 0.70692,-1.69498 0.71107,-0.70694 1.72394,-0.70694 1.00045,0 1.71151,0.7028 0.71107,0.7028 0.71107,1.69912 z m -0.4382,0 q 0,-0.81442 -0.58293,-1.38906 -0.57878,-0.57464 -1.4056,-0.57464 -0.82682,0 -1.40973,0.57877 -0.5829,0.57465 -0.5829,1.38493 0,0.80615 0.5829,1.38493 0.58291,0.57878 1.40973,0.57878 0.82682,0 1.4056,-0.57464 0.58293,-0.57878 0.58293,-1.38907 z" />
    <path
       style="fill:#93c47d;fill-rule:nonzero;stroke:none;stroke-width:0.26458332;stroke-linecap:square;stroke-miterlimit:10"
       inkscape:connector-curvature="0"
       id="path3744"
       d="m 104.90666,116.96533 -3.49333,7.48275 q -0.0868,0.19017 -0.22738,0.19017 -0.0868,0 -0.15296,-0.0661 -0.062,-0.062 -0.062,-0.14056 0,-0.062 0.0496,-0.1695 l 3.48919,-7.48275 q 0.0579,-0.11989 0.10749,-0.15296 0.0537,-0.0372 0.12402,-0.0372 0.0868,0 0.15296,0.0661 0.0661,0.062 0.0661,0.14056 0,0.0537 -0.0537,0.1695 z m 6.35103,0 -3.49333,7.48275 q -0.0868,0.19017 -0.22737,0.19017 -0.0868,0 -0.15296,-0.0661 -0.062,-0.062 -0.062,-0.14056 0,-0.062 0.0496,-0.1695 l 3.48919,-7.48275 q 0.0579,-0.11989 0.10748,-0.15296 0.0537,-0.0372 0.12403,-0.0372 0.0868,0 0.15296,0.0661 0.0661,0.062 0.0661,0.14056 0,0.0537 -0.0537,0.1695 z m 5.83427,2.60863 q 0,-0.14883 0.062,-0.21498 0.062,-0.0703 0.1571,-0.0703 0.0951,0 0.15709,0.0703 0.062,0.0661 0.062,0.22738 v 0.74414 q 0,0.15296 -0.062,0.22324 -0.062,0.0661 -0.15709,0.0661 -0.0909,0 -0.14883,-0.0579 -0.0579,-0.0579 -0.0703,-0.18603 -0.0289,-0.31006 -0.31833,-0.51263 -0.42581,-0.28939 -1.12448,-0.28939 -0.7276,0 -1.12861,0.29352 -0.30592,0.22325 -0.30592,0.4961 0,0.31005 0.35966,0.51676 0.24805,0.1447 0.94258,0.22324 0.90538,0.0992 1.25677,0.22324 0.50023,0.18191 0.74414,0.50437 0.24805,0.31832 0.24805,0.69039 0,0.54984 -0.5333,0.98392 -0.5333,0.42995 -1.5627,0.42995 -1.02526,0 -1.68258,-0.5209 0,0.17364 -0.0207,0.22738 -0.0207,0.0496 -0.0744,0.0868 -0.0537,0.0372 -0.12403,0.0372 -0.0909,0 -0.15296,-0.0661 -0.062,-0.0703 -0.062,-0.22324 v -0.89297 q 0,-0.1571 0.0579,-0.22324 0.062,-0.0661 0.1571,-0.0661 0.0951,0 0.15709,0.0661 0.0661,0.062 0.0661,0.1695 0,0.23977 0.11989,0.39687 0.1819,0.24805 0.57465,0.41341 0.39687,0.16123 0.97151,0.16123 0.8475,0 1.26091,-0.31419 0.41341,-0.31419 0.41341,-0.66559 0,-0.40515 -0.42168,-0.64906 -0.42168,-0.23978 -1.23197,-0.32246 -0.80615,-0.0827 -1.15755,-0.21497 -0.3514,-0.13643 -0.54984,-0.40515 -0.1943,-0.26871 -0.1943,-0.57877 0,-0.55811 0.5457,-0.8847 0.54984,-0.33073 1.30638,-0.33073 0.90124,0 1.46349,0.43821 z m 7.26467,2.05879 h -4.4235 q 0.11576,0.83922 0.70693,1.35599 0.59119,0.51263 1.46348,0.51263 0.48782,0 1.01699,-0.1571 0.5333,-0.16123 0.8723,-0.42581 0.0951,-0.0786 0.1695,-0.0786 0.0827,0 0.14469,0.0661 0.062,0.062 0.062,0.15296 0,0.0868 -0.0827,0.1695 -0.24804,0.25631 -0.88056,0.48369 -0.63251,0.22324 -1.30225,0.22324 -1.1162,0 -1.86448,-0.73174 -0.74414,-0.73173 -0.74414,-1.7694 0,-0.94671 0.69867,-1.62057 0.7028,-0.67799 1.73632,-0.67799 1.06248,0 1.74874,0.69453 0.69039,0.69453 0.678,1.80247 z m -0.4382,-0.44235 q -0.12817,-0.71521 -0.67801,-1.16582 -0.54984,-0.45062 -1.31051,-0.45062 -0.76068,0 -1.31052,0.44648 -0.5457,0.44235 -0.67799,1.16996 z m 12.0406,2.57555 v -0.62425 q -0.94672,0.79375 -2.02159,0.79375 -0.77721,0 -1.21956,-0.39274 -0.43822,-0.39688 -0.43822,-0.97152 0,-0.62838 0.57878,-1.09967 0.57878,-0.47129 1.69085,-0.47129 0.29766,0 0.64906,0.0413 0.3514,0.0372 0.76068,0.11989 v -0.7028 q 0,-0.35554 -0.33073,-0.62012 -0.33073,-0.26458 -0.99219,-0.26458 -0.50436,0 -1.42214,0.29352 -0.16536,0.0537 -0.21084,0.0537 -0.0827,0 -0.14469,-0.062 -0.0579,-0.062 -0.0579,-0.1571 0,-0.0868 0.0537,-0.13642 0.0703,-0.0786 0.58292,-0.21498 0.80615,-0.21497 1.21956,-0.21497 0.82269,0 1.28158,0.40514 0.45889,0.40515 0.45889,0.91778 v 2.87321 h 0.57877 q 0.16122,0 0.22738,0.062 0.0703,0.0579 0.0703,0.15296 0,0.0951 -0.0703,0.1571 -0.0661,0.062 -0.22738,0.062 z m 0,-2.16214 q -0.30593,-0.0868 -0.64906,-0.12816 -0.339,-0.0413 -0.71519,-0.0413 -0.94673,0 -1.47588,0.40928 -0.40516,0.30592 -0.40516,0.7276 0,0.39274 0.30593,0.66146 0.31006,0.26872 0.89711,0.26872 0.56636,0 1.04592,-0.22324 0.48369,-0.22738 0.99633,-0.71521 z m 13.2643,-1.87276 v -0.14469 q 0,-0.16123 0.062,-0.22738 0.062,-0.0703 0.1571,-0.0703 0.0992,0 0.16123,0.0703 0.062,0.0661 0.062,0.22738 v 0.97979 q -0.008,0.16123 -0.0662,0.22737 -0.0579,0.0661 -0.15709,0.0661 -0.0868,0 -0.14883,-0.0579 -0.0579,-0.0579 -0.0703,-0.19843 -0.0289,-0.36794 -0.48369,-0.69867 -0.45062,-0.33073 -1.21543,-0.33073 -0.96739,0 -1.46761,0.60772 -0.50022,0.60358 -0.50022,1.38079 0,0.84336 0.54983,1.3932 0.55397,0.5457 1.43453,0.5457 0.50437,0 1.0294,-0.18604 0.52503,-0.18603 0.95084,-0.59944 0.10749,-0.10335 0.19017,-0.10335 0.0868,0 0.1447,0.062 0.062,0.0579 0.062,0.14469 0,0.22324 -0.5209,0.56224 -0.84336,0.55397 -1.87689,0.55397 -1.05006,0 -1.72392,-0.66972 -0.67386,-0.66973 -0.67386,-1.69499 0,-1.05007 0.69039,-1.74047 0.6904,-0.69453 1.73633,-0.69453 1.00046,0 1.67432,0.59532 z m 6.96701,1.80661 q 0,0.99219 -0.71106,1.69499 -0.71107,0.7028 -1.71153,0.7028 -1.01285,0 -1.72392,-0.7028 -0.70694,-0.70693 -0.70694,-1.69499 0,-0.99218 0.70694,-1.69498 0.71107,-0.70694 1.72392,-0.70694 1.00046,0 1.71153,0.7028 0.71106,0.7028 0.71106,1.69912 z m -0.43821,0 q 0,-0.81442 -0.58291,-1.38906 -0.57878,-0.57464 -1.4056,-0.57464 -0.82682,0 -1.40973,0.57877 -0.58291,0.57465 -0.58291,1.38493 0,0.80615 0.58291,1.38493 0.58291,0.57878 1.40973,0.57878 0.82682,0 1.4056,-0.57464 0.58291,-0.57878 0.58291,-1.38907 z m 2.96106,-2.24895 v 0.65732 q 0.45475,-0.45889 0.81855,-0.63252 0.36794,-0.17777 0.83096,-0.17777 0.49609,0 0.90124,0.21084 0.28938,0.1571 0.52503,0.51677 0.23564,0.35553 0.23564,0.73587 v 2.73265 h 0.36794 q 0.15296,0 0.21911,0.062 0.0703,0.0579 0.0703,0.15296 0,0.0951 -0.0703,0.1571 -0.0661,0.062 -0.21911,0.062 h -1.16169 q -0.16123,0 -0.23151,-0.062 -0.0661,-0.062 -0.0661,-0.1571 0,-0.0951 0.0661,-0.15296 0.0703,-0.062 0.23151,-0.062 h 0.35967 v -2.66237 q 0,-0.45889 -0.33486,-0.77721 -0.33486,-0.31833 -0.90124,-0.31833 -0.42581,0 -0.74414,0.17363 -0.31419,0.17363 -0.8971,0.8599 v 2.72438 h 0.49196 q 0.15296,0 0.21911,0.062 0.0703,0.0579 0.0703,0.15296 0,0.0951 -0.0703,0.1571 -0.0661,0.062 -0.21911,0.062 h -1.418 q -0.15297,0 -0.22325,-0.062 -0.0661,-0.062 -0.0661,-0.1571 0,-0.0951 0.0661,-0.15296 0.0703,-0.062 0.22325,-0.062 h 0.49195 v -3.60082 h -0.36793 q -0.15296,0 -0.22324,-0.062 -0.0662,-0.062 -0.0662,-0.16123 0,-0.0951 0.0662,-0.15709 0.0703,-0.062 0.22324,-0.062 z m 9.88157,-2.00918 v 6.05234 h 0.57877 q 0.1571,0 0.22324,0.062 0.0703,0.0579 0.0703,0.15296 0,0.0951 -0.0703,0.1571 -0.0661,0.062 -0.22324,0.062 h -1.02112 v -0.86403 q -0.75241,1.03353 -1.9141,1.03353 -0.59118,0 -1.13275,-0.31006 -0.53743,-0.31419 -0.85162,-0.89297 -0.31006,-0.57877 -0.31006,-1.19476 0,-0.62011 0.31006,-1.19476 0.31419,-0.57877 0.85162,-0.89297 0.54157,-0.31419 1.13688,-0.31419 1.13689,0 1.90997,1.03353 v -2.45153 h -0.57878 q -0.1571,0 -0.22738,-0.062 -0.0661,-0.062 -0.0661,-0.15709 0,-0.0951 0.0661,-0.1571 0.0703,-0.062 0.22738,-0.062 z m -0.44235,4.25813 q 0,-0.82682 -0.55811,-1.39319 -0.55811,-0.57051 -1.32705,-0.57051 -0.77308,0 -1.33119,0.57051 -0.5581,0.56637 -0.5581,1.39319 0,0.82269 0.5581,1.3932 0.55811,0.57051 1.33119,0.57051 0.76894,0 1.32705,-0.57051 0.55811,-0.57051 0.55811,-1.3932 z m 4.87928,-4.47311 v 1.12035 h -0.64078 v -1.12035 z m 0.0165,2.22416 v 4.04316 h 1.70326 q 0.16123,0 0.22737,0.062 0.0703,0.0579 0.0703,0.15296 0,0.0951 -0.0703,0.1571 -0.0661,0.062 -0.22737,0.062 h -3.84473 q -0.15296,0 -0.22324,-0.062 -0.0661,-0.062 -0.0661,-0.1571 0,-0.0951 0.0661,-0.15296 0.0703,-0.062 0.22324,-0.062 h 1.70739 v -3.60082 h -1.26504 q -0.1571,0 -0.22738,-0.062 -0.0703,-0.062 -0.0703,-0.15709 0,-0.0992 0.0662,-0.16123 0.0703,-0.062 0.23151,-0.062 z m 7.93026,0.44234 v -0.14469 q 0,-0.16123 0.062,-0.22738 0.062,-0.0703 0.15709,-0.0703 0.0992,0 0.16123,0.0703 0.062,0.0661 0.062,0.22738 v 0.97979 q -0.008,0.16123 -0.0662,0.22737 -0.0579,0.0661 -0.1571,0.0661 -0.0868,0 -0.14882,-0.0579 -0.0579,-0.0579 -0.0703,-0.19843 -0.0289,-0.36794 -0.48369,-0.69867 -0.45062,-0.33073 -1.21542,-0.33073 -0.96739,0 -1.46762,0.60772 -0.50022,0.60358 -0.50022,1.38079 0,0.84336 0.54983,1.3932 0.55397,0.5457 1.43454,0.5457 0.50436,0 1.02939,-0.18604 0.52504,-0.18603 0.95085,-0.59944 0.10749,-0.10335 0.19017,-0.10335 0.0868,0 0.1447,0.062 0.062,0.0579 0.062,0.14469 0,0.22324 -0.5209,0.56224 -0.84336,0.55397 -1.87689,0.55397 -1.05007,0 -1.72392,-0.66972 -0.67387,-0.66973 -0.67387,-1.69499 0,-1.05007 0.6904,-1.74047 0.6904,-0.69453 1.73633,-0.69453 1.00046,0 1.67431,0.59532 z m -1.95539,4.87826 v -0.78962 q 0,-0.11575 0.0413,-0.16123 0.0455,-0.0496 0.11162,-0.0496 0.0744,0 0.11576,0.0496 0.0413,0.0496 0.0413,0.16123 v 0.4961 q 0.28939,0.0413 0.44648,0.19844 0.16123,0.15709 0.16123,0.36793 0,0.25218 -0.1943,0.42582 -0.1943,0.17776 -0.54984,0.17776 -0.24391,0 -0.52503,-0.0951 -0.27699,-0.0951 -0.34313,-0.17363 -0.0496,-0.0537 -0.0496,-0.11576 0,-0.0703 0.0413,-0.11575 0.0455,-0.0413 0.11162,-0.0413 0.0538,0 0.11989,0.0372 0.3514,0.1943 0.64492,0.1943 0.20257,0 0.3142,-0.0951 0.11575,-0.0951 0.11575,-0.2067 0,-0.0992 -0.0868,-0.17364 -0.11989,-0.0909 -0.30592,-0.0909 z m 7.74423,-0.84336 v -0.62425 q -0.94671,0.79375 -2.02158,0.79375 -0.77722,0 -1.21957,-0.39274 -0.43821,-0.39688 -0.43821,-0.97152 0,-0.62838 0.57877,-1.09967 0.57878,-0.47129 1.69086,-0.47129 0.29765,0 0.64905,0.0413 0.3514,0.0372 0.76068,0.11989 v -0.7028 q 0,-0.35554 -0.33073,-0.62012 -0.33073,-0.26458 -0.99219,-0.26458 -0.50436,0 -1.42213,0.29352 -0.16537,0.0537 -0.21084,0.0537 -0.0827,0 -0.1447,-0.062 -0.0579,-0.062 -0.0579,-0.1571 0,-0.0868 0.0537,-0.13642 0.0703,-0.0786 0.58291,-0.21498 0.80615,-0.21497 1.21956,-0.21497 0.82269,0 1.28158,0.40514 0.45889,0.40515 0.45889,0.91778 v 2.87321 h 0.57877 q 0.16123,0 0.22738,0.062 0.0703,0.0579 0.0703,0.15296 0,0.0951 -0.0703,0.1571 -0.0662,0.062 -0.22738,0.062 z m 0,-2.16214 q -0.30592,-0.0868 -0.64906,-0.12816 -0.33899,-0.0413 -0.7152,-0.0413 -0.94671,0 -1.47588,0.40928 -0.40514,0.30592 -0.40514,0.7276 0,0.39274 0.30592,0.66146 0.31006,0.26872 0.89711,0.26872 0.56637,0 1.04593,-0.22324 0.48369,-0.22738 0.99632,-0.71521 z m 0.18603,-3.86953 q 0.0868,0 0.15297,0.062 0.0661,0.062 0.0661,0.14056 0,0.0868 -0.0703,0.16536 -0.2067,0.23151 -0.48782,0.38034 -0.19844,0.11162 -0.40928,0.11162 -0.33073,0 -0.89297,-0.40928 -0.30179,-0.22324 -0.46715,-0.22324 -0.20671,0 -0.5209,0.28939 -0.14056,0.12816 -0.23978,0.12816 -0.0909,0 -0.15296,-0.062 -0.0579,-0.062 -0.0579,-0.14469 0,-0.1323 0.26458,-0.339 0.40101,-0.30593 0.7028,-0.30593 0.15296,0 0.3142,0.0662 0.16122,0.062 0.52089,0.31006 0.36381,0.24805 0.52917,0.24805 0.1943,0 0.59531,-0.3514 0.0827,-0.0661 0.15296,-0.0661 z m 7.34323,3.80338 q 0,0.99219 -0.71107,1.69499 -0.71107,0.7028 -1.71153,0.7028 -1.01285,0 -1.72392,-0.7028 -0.70693,-0.70693 -0.70693,-1.69499 0,-0.99218 0.70693,-1.69498 0.71107,-0.70694 1.72392,-0.70694 1.00046,0 1.71153,0.7028 0.71107,0.7028 0.71107,1.69912 z m -0.43822,0 q 0,-0.81442 -0.58291,-1.38906 -0.57878,-0.57464 -1.4056,-0.57464 -0.82682,0 -1.40973,0.57877 -0.58291,0.57465 -0.58291,1.38493 0,0.80615 0.58291,1.38493 0.58291,0.57878 1.40973,0.57878 0.82682,0 1.4056,-0.57464 0.58291,-0.57878 0.58291,-1.38907 z m 10.4283,-1.80661 v 3.60082 h 1.90583 q 0.1571,0 0.22324,0.062 0.0661,0.0579 0.0661,0.15296 0,0.0951 -0.0661,0.1571 -0.0661,0.062 -0.22324,0.062 h -3.39411 q -0.15709,0 -0.22324,-0.062 -0.0661,-0.062 -0.0661,-0.1571 0,-0.0951 0.0661,-0.15296 0.0661,-0.062 0.22324,-0.062 h 1.05007 v -3.60082 h -0.94258 q -0.15296,0 -0.22324,-0.062 -0.0661,-0.062 -0.0661,-0.16123 0,-0.0951 0.0661,-0.15709 0.0703,-0.062 0.22324,-0.062 h 0.94258 v -0.6532 q 0,-0.54983 0.44235,-0.95084 0.44648,-0.40514 1.17822,-0.40514 0.61598,0 1.31465,0.11575 0.26045,0.0413 0.31419,0.0992 0.0579,0.0537 0.0579,0.14883 0,0.0909 -0.062,0.15296 -0.062,0.0579 -0.16537,0.0579 -0.0413,0 -0.14056,-0.0165 -0.78135,-0.11989 -1.31878,-0.11989 -0.56637,0 -0.87643,0.28112 -0.30593,0.27699 -0.30593,0.63664 v 0.65321 h 2.02985 q 0.1571,0 0.22325,0.062 0.0661,0.062 0.0661,0.16123 0,0.0951 -0.0661,0.15709 -0.0661,0.062 -0.22325,0.062 z m 9.06302,1.80661 q 0,0.99219 -0.71107,1.69499 -0.71107,0.7028 -1.71152,0.7028 -1.01286,0 -1.72393,-0.7028 -0.70693,-0.70693 -0.70693,-1.69499 0,-0.99218 0.70693,-1.69498 0.71107,-0.70694 1.72393,-0.70694 1.00045,0 1.71152,0.7028 0.71107,0.7028 0.71107,1.69912 z m -0.43822,0 q 0,-0.81442 -0.58291,-1.38906 -0.57878,-0.57464 -1.4056,-0.57464 -0.82682,0 -1.40973,0.57877 -0.58291,0.57465 -0.58291,1.38493 0,0.80615 0.58291,1.38493 0.58291,0.57878 1.40973,0.57878 0.82682,0 1.4056,-0.57464 0.58291,-0.57878 0.58291,-1.38907 z m 3.84576,-2.24895 v 1.09553 q 0.84749,-0.76481 1.26504,-0.98392 0.42168,-0.2191 0.78135,-0.2191 0.38447,0 0.71933,0.26045 0.33486,0.26045 0.33486,0.39687 0,0.0992 -0.0661,0.16537 -0.0661,0.062 -0.16123,0.062 -0.0537,0 -0.0909,-0.0165 -0.0331,-0.0207 -0.13229,-0.1199 -0.1819,-0.17776 -0.31833,-0.24391 -0.13229,-0.0703 -0.26045,-0.0703 -0.28525,0 -0.68626,0.22738 -0.40101,0.22738 -1.38493,1.11208 v 2.37711 h 1.92236 q 0.1571,0 0.22325,0.062 0.0703,0.0579 0.0703,0.15297 0,0.0951 -0.0703,0.15709 -0.0661,0.062 -0.22325,0.062 h -3.40651 q -0.15709,0 -0.22324,-0.0579 -0.0661,-0.062 -0.0661,-0.15296 0,-0.0909 0.062,-0.14882 0.0661,-0.0579 0.22737,-0.0579 h 1.05007 v -3.61736 h -0.80202 q -0.1571,0 -0.22324,-0.062 -0.0661,-0.062 -0.0661,-0.16123 0,-0.0951 0.062,-0.15709 0.0661,-0.062 0.22738,-0.062 z m 13.59917,4.47724 h -0.73174 l -1.78594,-4.0349 h -0.44235 q -0.15709,0 -0.22324,-0.062 -0.0661,-0.062 -0.0661,-0.16123 0,-0.0951 0.0661,-0.15709 0.0661,-0.062 0.22324,-0.062 h 1.62884 q 0.15297,0 0.21911,0.062 0.0703,0.062 0.0703,0.16123 0,0.0951 -0.0703,0.15709 -0.0661,0.062 -0.21911,0.062 h -0.71933 l 1.59163,3.60082 h 0.19017 l 1.5627,-3.60082 h -0.72347 q -0.1571,0 -0.22324,-0.062 -0.0662,-0.062 -0.0662,-0.16123 0,-0.0951 0.0662,-0.15709 0.0661,-0.062 0.22324,-0.062 h 1.63297 q 0.1571,0 0.22325,0.062 0.0661,0.062 0.0661,0.16123 0,0.0951 -0.0661,0.15709 -0.0661,0.062 -0.22325,0.062 h -0.44235 z m 8.31887,-2.1332 h -4.4235 q 0.11576,0.83922 0.70693,1.35599 0.59118,0.51263 1.46348,0.51263 0.48782,0 1.01699,-0.1571 0.5333,-0.16123 0.8723,-0.42581 0.0951,-0.0786 0.1695,-0.0786 0.0827,0 0.14469,0.0661 0.062,0.062 0.062,0.15296 0,0.0868 -0.0827,0.1695 -0.24805,0.25631 -0.88056,0.48369 -0.63252,0.22324 -1.30225,0.22324 -1.11621,0 -1.86449,-0.73174 -0.74414,-0.73173 -0.74414,-1.7694 0,-0.94671 0.69867,-1.62057 0.7028,-0.67799 1.73633,-0.67799 1.06246,0 1.74873,0.69453 0.69039,0.69453 0.67799,1.80247 z m -0.43821,-0.44235 q -0.12816,-0.71521 -0.678,-1.16582 -0.54984,-0.45062 -1.31051,-0.45062 -0.76068,0 -1.31052,0.44648 -0.5457,0.44235 -0.67799,1.16996 z m 3.9243,-1.90169 v 1.09553 q 0.8475,-0.76481 1.26504,-0.98392 0.42168,-0.2191 0.78135,-0.2191 0.38447,0 0.71934,0.26045 0.33486,0.26045 0.33486,0.39687 0,0.0992 -0.0662,0.16537 -0.0661,0.062 -0.16123,0.062 -0.0537,0 -0.0909,-0.0165 -0.0331,-0.0207 -0.13229,-0.1199 -0.1819,-0.17776 -0.31833,-0.24391 -0.13229,-0.0703 -0.26045,-0.0703 -0.28525,0 -0.68626,0.22738 -0.40101,0.22738 -1.38493,1.11208 v 2.37711 h 1.92237 q 0.15709,0 0.22324,0.062 0.0703,0.0579 0.0703,0.15297 0,0.0951 -0.0703,0.15709 -0.0661,0.062 -0.22324,0.062 h -3.40651 q -0.1571,0 -0.22325,-0.0579 -0.0661,-0.062 -0.0661,-0.15296 0,-0.0909 0.062,-0.14882 0.0662,-0.0579 0.22738,-0.0579 h 1.05006 v -3.61736 h -0.80202 q -0.15709,0 -0.22324,-0.062 -0.0661,-0.062 -0.0661,-0.16123 0,-0.0951 0.062,-0.15709 0.0661,-0.062 0.22737,-0.062 z m 8.99688,-2.00918 v 6.05234 h 0.57878 q 0.15708,0 0.22323,0.062 0.0703,0.0579 0.0703,0.15296 0,0.0951 -0.0703,0.1571 -0.0661,0.062 -0.22323,0.062 h -1.02114 v -0.86403 q -0.75242,1.03353 -1.9141,1.03353 -0.59118,0 -1.13273,-0.31006 -0.53745,-0.31419 -0.85164,-0.89297 -0.31006,-0.57877 -0.31006,-1.19476 0,-0.62011 0.31006,-1.19476 0.31419,-0.57877 0.85164,-0.89297 0.54155,-0.31419 1.13686,-0.31419 1.13689,0 1.90997,1.03353 v -2.45153 h -0.57877 q -0.15711,0 -0.22739,-0.062 -0.0661,-0.062 -0.0661,-0.15709 0,-0.0951 0.0661,-0.1571 0.0703,-0.062 0.22739,-0.062 z m -0.44236,4.25813 q 0,-0.82682 -0.55811,-1.39319 -0.55811,-0.57051 -1.32704,-0.57051 -0.77309,0 -1.3312,0.57051 -0.55809,0.56637 -0.55809,1.39319 0,0.82269 0.55809,1.3932 0.55811,0.57051 1.3312,0.57051 0.76893,0 1.32704,-0.57051 0.55811,-0.57051 0.55811,-1.3932 z m 5.91283,2.22829 v -0.62425 q -0.94673,0.79375 -2.0216,0.79375 -0.77721,0 -1.21954,-0.39274 -0.43823,-0.39688 -0.43823,-0.97152 0,-0.62838 0.57877,-1.09967 0.57878,-0.47129 1.69085,-0.47129 0.29766,0 0.64908,0.0413 0.35139,0.0372 0.76067,0.11989 v -0.7028 q 0,-0.35554 -0.33073,-0.62012 -0.33073,-0.26458 -0.99218,-0.26458 -0.50438,0 -1.42214,0.29352 -0.16536,0.0537 -0.21085,0.0537 -0.0827,0 -0.1447,-0.062 -0.0579,-0.062 -0.0579,-0.1571 0,-0.0868 0.0537,-0.13642 0.0703,-0.0786 0.5829,-0.21498 0.80616,-0.21497 1.21957,-0.21497 0.82269,0 1.28156,0.40514 0.4589,0.40515 0.4589,0.91778 v 2.87321 h 0.57877 q 0.16124,0 0.22738,0.062 0.0703,0.0579 0.0703,0.15296 0,0.0951 -0.0703,0.1571 -0.0661,0.062 -0.22738,0.062 z m 0,-2.16214 q -0.30594,-0.0868 -0.64907,-0.12816 -0.33899,-0.0413 -0.7152,-0.0413 -0.9467,0 -1.47587,0.40928 -0.40516,0.30592 -0.40516,0.7276 0,0.39274 0.30594,0.66146 0.31007,0.26872 0.8971,0.26872 0.56636,0 1.04592,-0.22324 0.48371,-0.22738 0.99634,-0.71521 z m 7.23159,-4.32428 v 6.05234 h 0.57878 q 0.15708,0 0.22323,0.062 0.0703,0.0579 0.0703,0.15296 0,0.0951 -0.0703,0.1571 -0.0662,0.062 -0.22323,0.062 h -1.02113 v -0.86403 q -0.7524,1.03353 -1.9141,1.03353 -0.59116,0 -1.13274,-0.31006 -0.53745,-0.31419 -0.85164,-0.89297 -0.31004,-0.57877 -0.31004,-1.19476 0,-0.62011 0.31004,-1.19476 0.31419,-0.57877 0.85164,-0.89297 0.54158,-0.31419 1.13689,-0.31419 1.13686,0 1.90995,1.03353 v -2.45153 h -0.57878 q -0.15708,0 -0.22738,-0.062 -0.0662,-0.062 -0.0662,-0.15709 0,-0.0951 0.0662,-0.1571 0.0703,-0.062 0.22738,-0.062 z m -0.44235,4.25813 q 0,-0.82682 -0.55812,-1.39319 -0.55808,-0.57051 -1.32704,-0.57051 -0.77309,0 -1.33117,0.57051 -0.55811,0.56637 -0.55811,1.39319 0,0.82269 0.55811,1.3932 0.55808,0.57051 1.33117,0.57051 0.76896,0 1.32704,-0.57051 0.55812,-0.57051 0.55812,-1.3932 z m 7.01249,0.0951 h -4.42349 q 0.11575,0.83923 0.70691,1.35599 0.59119,0.51263 1.46349,0.51263 0.48781,0 1.01698,-0.15709 0.53329,-0.16123 0.87231,-0.42582 0.0951,-0.0786 0.16949,-0.0786 0.0827,0 0.1447,0.0661 0.062,0.062 0.062,0.15296 0,0.0868 -0.0827,0.1695 -0.24804,0.25631 -0.88058,0.48369 -0.63252,0.22325 -1.30223,0.22325 -1.11622,0 -1.86449,-0.73175 -0.74414,-0.73173 -0.74414,-1.76939 0,-0.94671 0.69866,-1.62057 0.70281,-0.678 1.73633,-0.678 1.06246,0 1.74873,0.69452 0.69041,0.69454 0.678,1.80249 z m -0.43823,-0.44235 q -0.12814,-0.7152 -0.678,-1.16582 -0.54983,-0.45062 -1.3105,-0.45062 -0.76068,0 -1.31051,0.44649 -0.54571,0.44235 -0.678,1.16995 z m 4.65603,-4.12584 v 1.12034 h -0.64077 v -1.12034 z m 0.0164,2.22415 v 4.04317 h 1.70326 q 0.16124,0 0.22738,0.062 0.0703,0.0579 0.0703,0.15296 0,0.0951 -0.0703,0.1571 -0.0661,0.062 -0.22738,0.062 h -3.84471 q -0.15296,0 -0.22323,-0.062 -0.0661,-0.062 -0.0661,-0.1571 0,-0.0951 0.0661,-0.15296 0.0703,-0.062 0.22323,-0.062 h 1.70738 v -3.60082 h -1.26504 q -0.15708,0 -0.22738,-0.062 -0.0703,-0.062 -0.0703,-0.1571 0,-0.0992 0.0661,-0.16123 0.0703,-0.062 0.23151,-0.062 z m 5.60277,0 v 1.09554 q 0.84748,-0.76481 1.26505,-0.98392 0.42167,-0.2191 0.78134,-0.2191 0.38447,0 0.71932,0.26044 0.33489,0.26045 0.33489,0.39688 0,0.0992 -0.0661,0.16536 -0.0661,0.062 -0.16124,0.062 -0.0537,0 -0.091,-0.0165 -0.0331,-0.0207 -0.13229,-0.11989 -0.1819,-0.17776 -0.31832,-0.24391 -0.13229,-0.0703 -0.26046,-0.0703 -0.28525,0 -0.68625,0.22738 -0.401,0.22737 -1.38493,1.11207 v 2.37712 h 1.92235 q 0.15711,0 0.22326,0.062 0.0703,0.0579 0.0703,0.15297 0,0.0951 -0.0703,0.15709 -0.0662,0.062 -0.22326,0.062 h -3.40651 q -0.15708,0 -0.22323,-0.0579 -0.0661,-0.062 -0.0661,-0.15296 0,-0.0909 0.062,-0.14883 0.0661,-0.0579 0.22735,-0.0579 h 1.05008 V 119.731 h -0.80203 q -0.15708,0 -0.22323,-0.062 -0.0661,-0.062 -0.0661,-0.16123 0,-0.0951 0.062,-0.1571 0.0661,-0.062 0.22736,-0.062 z m 8.1163,4.47725 v -0.62425 q -0.9467,0.79375 -2.02157,0.79375 -0.77722,0 -1.21957,-0.39275 -0.43823,-0.39687 -0.43823,-0.97151 0,-0.62839 0.57877,-1.09968 0.57878,-0.47128 1.69088,-0.47128 0.29765,0 0.64905,0.0413 0.35139,0.0372 0.76067,0.11988 v -0.7028 q 0,-0.35553 -0.33073,-0.62011 -0.33073,-0.26459 -0.99218,-0.26459 -0.50438,0 -1.42214,0.29353 -0.16536,0.0537 -0.21085,0.0537 -0.0827,0 -0.1447,-0.062 -0.0579,-0.062 -0.0579,-0.1571 0,-0.0868 0.0537,-0.13643 0.0703,-0.0786 0.5829,-0.21497 0.80616,-0.21497 1.21957,-0.21497 0.8227,0 1.28159,0.40514 0.45887,0.40514 0.45887,0.91777 v 2.87321 h 0.57877 q 0.16124,0 0.22738,0.062 0.0703,0.0579 0.0703,0.15297 0,0.0951 -0.0703,0.15709 -0.0661,0.062 -0.22738,0.062 z m 0,-2.16214 q -0.30593,-0.0868 -0.64905,-0.12816 -0.33901,-0.0413 -0.71522,-0.0413 -0.9467,0 -1.47587,0.40928 -0.40513,0.30591 -0.40513,0.7276 0,0.39274 0.30591,0.66146 0.31007,0.26871 0.8971,0.26871 0.56639,0 1.04595,-0.22324 0.48368,-0.22737 0.99631,-0.7152 z" />
    <path
       style="fill:#fffb00;fill-rule:nonzero;stroke:none;stroke-width:0.26458332;stroke-linecap:square;stroke-miterlimit:10"
       inkscape:connector-curvature="0"
       id="path3746"
       d="m 90.015584,133.89867 q -0.181901,-0.21498 -0.25219,-0.41342 -0.0661,-0.19843 -0.0661,-0.5457 v -1.68258 q 0,-0.21084 -0.0827,-0.30179 -0.0786,-0.0909 -0.297648,-0.11163 -0.214982,-0.0207 -0.355542,-0.16949 -0.14056,-0.15298 -0.14056,-0.36381 0,-0.22737 0.157102,-0.38033 0.161229,-0.1571 0.40101,-0.1571 0.347268,0 0.665589,0.18603 0.322461,0.1819 0.562239,0.59532 0.148831,0.26871 0.148831,0.6201 v 1.76528 q 0,0.22324 0.0703,0.31006 0.0744,0.0827 0.31006,0.11162 0.239781,0.0248 0.363799,0.16537 0.128162,0.13642 0.128162,0.37207 0,0.22737 -0.128162,0.36793 -0.124018,0.13642 -0.363799,0.16537 -0.239779,0.0289 -0.293521,0.0951 -0.0868,0.10334 -0.0868,0.32245 v 1.86449 q 0,0.57463 -0.413409,0.98806 -0.413422,0.41753 -0.954982,0.41753 -0.248049,0 -0.409279,-0.15709 -0.157099,-0.15297 -0.157099,-0.38035 0,-0.21083 0.14056,-0.36379 0.14056,-0.14884 0.35967,-0.16949 0.223239,-0.0207 0.281119,-0.091 0.0951,-0.10749 0.0951,-0.32247 v -1.68258 q 0,-0.44649 0.062,-0.6408 0.0661,-0.19844 0.256321,-0.4134 z" />
  </g>
</svg>
